{
  "accessors": [
    {
      "bufferView": 2,
      "componentType": 5126,
      "count": 13713,
      "max": [
        2.6487491130828857,
        2.743086338043213,
        1.036563515663147
      ],
      "min": [
        -2.648749828338623,
        0.013012992218136787,
        -1.0364553928375244
      ],
      "type": "VEC3"
    },
    {
      "bufferView": 2,
      "byteOffset": 164556,
      "componentType": 5126,
      "count": 13713,
      "type": "VEC3"
    },
    {
      "bufferView": 3,
      "componentType": 5126,
      "count": 13713,
      "type": "VEC4"
    },
    {
      "bufferView": 1,
      "componentType": 5126,
      "count": 13713,
      "type": "VEC2"
    },
    {
      "bufferView": 1,
      "byteOffset": 109704,
      "componentType": 5126,
      "count": 13713,
      "type": "VEC2"
    },
    {
      "bufferView": 1,
      "byteOffset": 219408,
      "componentType": 5126,
      "count": 13713,
      "type": "VEC2"
    },
    {
      "bufferView": 1,
      "byteOffset": 329112,
      "componentType": 5126,
      "count": 13713,
      "type": "VEC2"
    },
    {
      "bufferView": 1,
      "byteOffset": 438816,
      "componentType": 5126,
      "count": 13713,
      "type": "VEC2"
    },
    {
      "bufferView": 0,
      "componentType": 5125,
      "count": 35142,
      "type": "SCALAR"
    }
  ],
  "asset": {
    "generator": "fab-model-conversion",
    "version": "2.0"
  },
  "bufferViews": [
    {
      "buffer": 0,
      "byteLength": 140568,
      "target": 34963
    },
    {
      "buffer": 0,
      "byteLength": 548520,
      "byteOffset": 140568,
      "byteStride": 8,
      "target": 34962
    },
    {
      "buffer": 0,
      "byteLength": 329112,
      "byteOffset": 689088,
      "byteStride": 12,
      "target": 34962
    },
    {
      "buffer": 0,
      "byteLength": 219408,
      "byteOffset": 1018200,
      "byteStride": 16,
      "target": 34962
    }
  ],
  "buffers": [
    {
      "byteLength": 1237608,
      "uri": "scene.bin"
    }
  ],
  "images": [
    {
      "uri": "textures/M_MacchinarioRovinato_baseColor.jpeg"
    },
    {
      "uri": "textures/M_MacchinarioRovinato_metallicRoughness.jpeg"
    },
    {
      "uri": "textures/M_MacchinarioRovinato_normal.jpeg"
    }
  ],
  "materials": [
    {
      "doubleSided": true,
      "name": "M_MacchinarioRovinato",
      "normalTexture": {
        "index": 2,
        "texCoord": 2
      },
      "occlusionTexture": {
        "index": 1,
        "texCoord": 3
      },
      "pbrMetallicRoughness": {
        "baseColorTexture": {
          "index": 0
        },
        "metallicRoughnessTexture": {
          "index": 1,
          "texCoord": 1
        }
      }
    }
  ],
  "meshes": [
    {
      "name": "Object_0",
      "primitives": [
        {
          "attributes": {
            "NORMAL": 1,
            "POSITION": 0,
            "TANGENT": 2,
            "TEXCOORD_0": 3,
            "TEXCOORD_1": 4,
            "TEXCOORD_2": 5,
            "TEXCOORD_3": 6,
            "TEXCOORD_4": 7
          },
          "indices": 8,
          "material": 0,
          "mode": 4
        }
      ]
    }
  ],
  "nodes": [
    {
      "children": [
        1
      ],
      "matrix": [
        1.0,
        0.0,
        0.0,
        0.0,
        0.0,
        2.220446049250313e-16,
        -1.0,
        0.0,
        0.0,
        1.0,
        2.220446049250313e-16,
        0.0,
        0.0,
        0.0,
        0.0,
        1.0
      ],
      "name": "FAB converted model"
    },
    {
      "children": [
        2
      ],
      "name": "root"
    },
    {
      "children": [
        3
      ],
      "matrix": [
        1.0,
        0.0,
        0.0,
        0.0,
        0.0,
        2.220446049250313e-16,
        1.0,
        0.0,
        0.0,
        -1.0,
        2.220446049250313e-16,
        0.0,
        0.0,
        0.0,
        0.0,
        1.0
      ],
      "name": "GLTF_SceneRootNode"
    },
    {
      "children": [
        4
      ],
      "name": "MacchinarioRovinato_0"
    },
    {
      "mesh": 0,
      "name": "Object_4"
    }
  ],
  "samplers": [
    {
      "magFilter": 9729,
      "minFilter": 9987,
      "wrapS": 10497,
      "wrapT": 10497
    }
  ],
  "scene": 0,
  "scenes": [
    {
      "name": "FAB converted",
      "nodes": [
        0
      ]
    }
  ],
  "textures": [
    {
      "sampler": 0,
      "source": 0
    },
    {
      "sampler": 0,
      "source": 1
    },
    {
      "sampler": 0,
      "source": 2
    }
  ]
}
