{
  "accessors": [
    {
      "bufferView": 2,
      "componentType": 5126,
      "count": 186,
      "max": [
        0.07082599401473999,
        0.07489080727100372,
        0.030861258506774902
      ],
      "min": [
        -0.07566140592098236,
        -1.7739832401275635e-05,
        -0.030861198902130127
      ],
      "type": "VEC3"
    },
    {
      "bufferView": 2,
      "byteOffset": 2232,
      "componentType": 5126,
      "count": 186,
      "type": "VEC3"
    },
    {
      "bufferView": 3,
      "componentType": 5126,
      "count": 186,
      "type": "VEC4"
    },
    {
      "bufferView": 1,
      "componentType": 5126,
      "count": 186,
      "type": "VEC2"
    },
    {
      "bufferView": 1,
      "byteOffset": 1488,
      "componentType": 5126,
      "count": 186,
      "type": "VEC2"
    },
    {
      "bufferView": 1,
      "byteOffset": 2976,
      "componentType": 5126,
      "count": 186,
      "type": "VEC2"
    },
    {
      "bufferView": 1,
      "byteOffset": 4464,
      "componentType": 5126,
      "count": 186,
      "type": "VEC2"
    },
    {
      "bufferView": 0,
      "componentType": 5125,
      "count": 516,
      "type": "SCALAR"
    },
    {
      "bufferView": 2,
      "byteOffset": 4464,
      "componentType": 5126,
      "count": 196,
      "max": [
        0.05318732559680939,
        0.05061602592468262,
        0.03151392936706543
      ],
      "min": [
        -0.053187295794487,
        -3.757998356945791e-10,
        -0.03151392936706543
      ],
      "type": "VEC3"
    },
    {
      "bufferView": 2,
      "byteOffset": 6816,
      "componentType": 5126,
      "count": 196,
      "type": "VEC3"
    },
    {
      "bufferView": 3,
      "byteOffset": 2976,
      "componentType": 5126,
      "count": 196,
      "type": "VEC4"
    },
    {
      "bufferView": 1,
      "byteOffset": 5952,
      "componentType": 5126,
      "count": 196,
      "type": "VEC2"
    },
    {
      "bufferView": 1,
      "byteOffset": 7520,
      "componentType": 5126,
      "count": 196,
      "type": "VEC2"
    },
    {
      "bufferView": 1,
      "byteOffset": 9088,
      "componentType": 5126,
      "count": 196,
      "type": "VEC2"
    },
    {
      "bufferView": 1,
      "byteOffset": 10656,
      "componentType": 5126,
      "count": 196,
      "type": "VEC2"
    },
    {
      "bufferView": 0,
      "byteOffset": 2064,
      "componentType": 5125,
      "count": 468,
      "type": "SCALAR"
    },
    {
      "bufferView": 2,
      "byteOffset": 9168,
      "componentType": 5126,
      "count": 300,
      "max": [
        0.03846025466918945,
        0.16631406545639038,
        0.039026081562042236
      ],
      "min": [
        -0.03874635696411133,
        0.0,
        -0.0418509840965271
      ],
      "type": "VEC3"
    },
    {
      "bufferView": 2,
      "byteOffset": 12768,
      "componentType": 5126,
      "count": 300,
      "type": "VEC3"
    },
    {
      "bufferView": 3,
      "byteOffset": 6112,
      "componentType": 5126,
      "count": 300,
      "type": "VEC4"
    },
    {
      "bufferView": 1,
      "byteOffset": 12224,
      "componentType": 5126,
      "count": 300,
      "type": "VEC2"
    },
    {
      "bufferView": 1,
      "byteOffset": 14624,
      "componentType": 5126,
      "count": 300,
      "type": "VEC2"
    },
    {
      "bufferView": 1,
      "byteOffset": 17024,
      "componentType": 5126,
      "count": 300,
      "type": "VEC2"
    },
    {
      "bufferView": 1,
      "byteOffset": 19424,
      "componentType": 5126,
      "count": 300,
      "type": "VEC2"
    },
    {
      "bufferView": 0,
      "byteOffset": 3936,
      "componentType": 5125,
      "count": 852,
      "type": "SCALAR"
    }
  ],
  "asset": {
    "generator": "fab-model-conversion",
    "version": "2.0"
  },
  "bufferViews": [
    {
      "buffer": 0,
      "byteLength": 7344,
      "target": 34963
    },
    {
      "buffer": 0,
      "byteLength": 21824,
      "byteOffset": 7344,
      "byteStride": 8,
      "target": 34962
    },
    {
      "buffer": 0,
      "byteLength": 16368,
      "byteOffset": 29168,
      "byteStride": 12,
      "target": 34962
    },
    {
      "buffer": 0,
      "byteLength": 10912,
      "byteOffset": 45536,
      "byteStride": 16,
      "target": 34962
    }
  ],
  "buffers": [
    {
      "byteLength": 56448,
      "uri": "scene.bin"
    }
  ],
  "images": [
    {
      "uri": "textures/Cans_baseColor.png"
    },
    {
      "uri": "textures/Cans_metallicRoughness.png"
    },
    {
      "uri": "textures/Cans_normal.png"
    }
  ],
  "materials": [
    {
      "doubleSided": true,
      "name": "Cans",
      "normalTexture": {
        "index": 2
      },
      "occlusionTexture": {
        "index": 1
      },
      "pbrMetallicRoughness": {
        "baseColorTexture": {
          "index": 0
        },
        "metallicRoughnessTexture": {
          "index": 1
        },
        "roughnessFactor": 0.5333810327829506
      }
    }
  ],
  "meshes": [
    {
      "name": "Object_0",
      "primitives": [
        {
          "attributes": {
            "NORMAL": 1,
            "POSITION": 0,
            "TANGENT": 2,
            "TEXCOORD_0": 3,
            "TEXCOORD_1": 4,
            "TEXCOORD_2": 5,
            "TEXCOORD_3": 6
          },
          "indices": 7,
          "material": 0,
          "mode": 4
        }
      ]
    },
    {
      "name": "Object_1",
      "primitives": [
        {
          "attributes": {
            "NORMAL": 9,
            "POSITION": 8,
            "TANGENT": 10,
            "TEXCOORD_0": 11,
            "TEXCOORD_1": 12,
            "TEXCOORD_2": 13,
            "TEXCOORD_3": 14
          },
          "indices": 15,
          "material": 0,
          "mode": 4
        }
      ]
    },
    {
      "name": "Object_2",
      "primitives": [
        {
          "attributes": {
            "NORMAL": 17,
            "POSITION": 16,
            "TANGENT": 18,
            "TEXCOORD_0": 19,
            "TEXCOORD_1": 20,
            "TEXCOORD_2": 21,
            "TEXCOORD_3": 22
          },
          "indices": 23,
          "material": 0,
          "mode": 4
        }
      ]
    }
  ],
  "nodes": [
    {
      "children": [
        1
      ],
      "matrix": [
        1.0,
        0.0,
        0.0,
        0.0,
        0.0,
        2.220446049250313e-16,
        -1.0,
        0.0,
        0.0,
        1.0,
        2.220446049250313e-16,
        0.0,
        0.0,
        0.0,
        0.0,
        1.0
      ],
      "name": "Sketchfab_model"
    },
    {
      "children": [
        2
      ],
      "name": "root"
    },
    {
      "children": [
        3,
        5,
        7
      ],
      "matrix": [
        1.0,
        0.0,
        0.0,
        0.0,
        0.0,
        2.220446049250313e-16,
        1.0,
        0.0,
        0.0,
        -1.0,
        2.220446049250313e-16,
        0.0,
        0.0,
        0.0,
        0.0,
        1.0
      ],
      "name": "GLTF_SceneRootNode"
    },
    {
      "children": [
        4
      ],
      "matrix": [
        1.0,
        0.0,
        0.0,
        0.0,
        0.0,
        1.0,
        0.0,
        0.0,
        0.0,
        0.0,
        1.0,
        0.0,
        0.09671960771083832,
        0.0,
        -0.07191251218318939,
        1.0
      ],
      "name": "Can_03_GEO_0"
    },
    {
      "mesh": 0,
      "name": "Object_4"
    },
    {
      "children": [
        6
      ],
      "matrix": [
        0.9342735672940857,
        0.0,
        -0.35655701010579427,
        0.0,
        0.0,
        1.0,
        0.0,
        0.0,
        0.35655701010579427,
        0.0,
        0.9342735672940857,
        0.0,
        0.03140806779265404,
        0.0,
        0.044019147753715515,
        1.0
      ],
      "name": "Can_02_GEO_1"
    },
    {
      "mesh": 1,
      "name": "Object_6"
    },
    {
      "children": [
        8
      ],
      "matrix": [
        1.0,
        0.0,
        0.0,
        0.0,
        0.0,
        1.0,
        0.0,
        0.0,
        0.0,
        0.0,
        1.0,
        0.0,
        -0.062194615602493286,
        0.0,
        -0.08875689655542374,
        1.0
      ],
      "name": "Can_01_GEO_2"
    },
    {
      "mesh": 2,
      "name": "Object_8"
    }
  ],
  "samplers": [
    {
      "magFilter": 9729,
      "minFilter": 9987,
      "wrapS": 10497,
      "wrapT": 10497
    }
  ],
  "scene": 0,
  "scenes": [
    {
      "name": "Sketchfab_Scene",
      "nodes": [
        0
      ]
    }
  ],
  "textures": [
    {
      "sampler": 0,
      "source": 0
    },
    {
      "sampler": 0,
      "source": 1
    },
    {
      "sampler": 0,
      "source": 2
    }
  ]
}
