# Blender v3.6.5 OBJ File: 'Cell 1_3.blend'
# www.blender.org
mtllib Cell_2_Door.mtl
o Cell_2_Door
v -0.267977 0.620448 0.285317
v -0.267977 0.648273 0.285317
v -0.267977 0.620448 -0.285317
v -0.267977 0.648273 -0.285317
v 0.242414 0.620448 0.285317
v 0.242414 0.648273 0.285317
v 0.242414 0.620448 -0.285317
v 0.242414 0.648273 -0.285317
v 0.251314 0.620713 0.296414
v 0.251314 0.620713 -0.296414
v 0.256246 0.621582 0.296414
v 0.256246 0.621582 -0.296414
v 0.260583 0.624086 0.296414
v 0.260583 0.624086 -0.296414
v 0.263802 0.627922 0.296414
v 0.263802 0.627922 -0.296414
v 0.265514 0.632628 0.296414
v 0.265514 0.632628 -0.296414
v 0.265514 0.637636 0.296414
v 0.265514 0.637636 -0.296414
v 0.263802 0.642341 0.296414
v 0.263802 0.642341 -0.296414
v 0.260583 0.646178 0.296414
v 0.260583 0.646178 -0.296414
v 0.256246 0.648682 0.296414
v 0.256246 0.648682 -0.296414
v 0.251314 0.649551 0.296414
v 0.251314 0.649551 -0.296414
v 0.246382 0.648682 0.296414
v 0.246382 0.648682 -0.296414
v 0.242046 0.646178 0.296414
v 0.242046 0.646178 -0.296414
v 0.238827 0.642341 0.296414
v 0.238827 0.642341 -0.296414
v 0.237114 0.637636 0.296414
v 0.237114 0.637636 -0.296414
v 0.237114 0.632628 0.296414
v 0.237114 0.632628 -0.296414
v 0.238827 0.627922 0.296414
v 0.238827 0.627922 -0.296414
v 0.242046 0.624086 0.296414
v 0.242046 0.624086 -0.296414
v 0.246382 0.621582 0.296414
v 0.246382 0.621582 -0.296414
v 0.256951 0.650620 -0.223470
v 0.256951 0.650620 -0.172167
v 0.261908 0.647758 -0.223470
v 0.261908 0.647758 -0.172167
v 0.265588 0.643373 -0.223470
v 0.265588 0.643373 -0.172167
v 0.267546 0.637994 -0.223470
v 0.267546 0.637994 -0.172167
v 0.267546 0.632270 -0.223470
v 0.267546 0.632270 -0.172167
v 0.265588 0.626891 -0.223470
v 0.265588 0.626891 -0.172167
v 0.261908 0.622506 -0.223470
v 0.261908 0.622506 -0.172167
v 0.256951 0.619644 -0.223470
v 0.256951 0.619644 -0.172167
v 0.251314 0.618650 -0.172167
v 0.251314 0.618650 -0.223470
v 0.251314 0.651585 -0.172167
v 0.251314 0.651585 -0.223470
v 0.246736 0.651585 -0.172167
v 0.246736 0.651585 -0.223470
v 0.190838 0.651585 -0.172167
v 0.190838 0.651585 -0.223470
v 0.190839 0.618481 -0.172167
v 0.190839 0.618481 -0.223470
v 0.246775 0.618481 -0.172167
v 0.246775 0.618481 -0.223470
v 0.256000 0.648005 -0.223470
v 0.256000 0.648005 -0.172167
v 0.260120 0.645626 -0.223470
v 0.260120 0.645626 -0.172167
v 0.263179 0.641982 -0.223470
v 0.263179 0.641982 -0.172167
v 0.264806 0.637511 -0.223470
v 0.264806 0.637511 -0.172167
v 0.264806 0.632753 -0.223470
v 0.264806 0.632753 -0.172167
v 0.263179 0.628282 -0.223470
v 0.263179 0.628282 -0.172167
v 0.260120 0.624637 -0.223470
v 0.260120 0.624637 -0.172167
v 0.256000 0.622258 -0.223470
v 0.256000 0.622258 -0.172167
v 0.251314 0.621432 -0.172167
v 0.251314 0.621432 -0.223470
v 0.251314 0.648831 -0.172167
v 0.251314 0.648831 -0.223470
v 0.246272 0.648831 -0.172167
v 0.246272 0.648831 -0.223470
v 0.190838 0.648831 -0.172167
v 0.190838 0.648831 -0.223470
v 0.190839 0.621220 -0.172167
v 0.190839 0.621220 -0.223470
v 0.246231 0.621220 -0.172167
v 0.246231 0.621220 -0.223470
v 0.256951 0.650620 0.223470
v 0.256951 0.650620 0.172167
v 0.261908 0.647758 0.223470
v 0.261908 0.647758 0.172167
v 0.265588 0.643373 0.223470
v 0.265588 0.643373 0.172167
v 0.267546 0.637994 0.223470
v 0.267546 0.637994 0.172167
v 0.267546 0.632270 0.223470
v 0.267546 0.632270 0.172167
v 0.265588 0.626891 0.223470
v 0.265588 0.626891 0.172167
v 0.261908 0.622506 0.223470
v 0.261908 0.622506 0.172167
v 0.256951 0.619644 0.223470
v 0.256951 0.619644 0.172167
v 0.251314 0.618650 0.172167
v 0.251314 0.618650 0.223470
v 0.251314 0.651585 0.172167
v 0.251314 0.651585 0.223470
v 0.246736 0.651585 0.172167
v 0.246736 0.651585 0.223470
v 0.190838 0.651585 0.172167
v 0.190838 0.651585 0.223470
v 0.190839 0.618481 0.172167
v 0.190839 0.618481 0.223470
v 0.246775 0.618481 0.172167
v 0.246775 0.618481 0.223470
v 0.256000 0.648005 0.223470
v 0.256000 0.648005 0.172167
v 0.260120 0.645626 0.223470
v 0.260120 0.645626 0.172167
v 0.263179 0.641982 0.223470
v 0.263179 0.641982 0.172167
v 0.264806 0.637511 0.223470
v 0.264806 0.637511 0.172167
v 0.264806 0.632753 0.223470
v 0.264806 0.632753 0.172167
v 0.263179 0.628282 0.223470
v 0.263179 0.628282 0.172167
v 0.260120 0.624637 0.223470
v 0.260120 0.624637 0.172167
v 0.256000 0.622258 0.223470
v 0.256000 0.622258 0.172167
v 0.251314 0.621432 0.172167
v 0.251314 0.621432 0.223470
v 0.251314 0.648831 0.172167
v 0.251314 0.648831 0.223470
v 0.246272 0.648831 0.172167
v 0.246272 0.648831 0.223470
v 0.190838 0.648831 0.172167
v 0.190838 0.648831 0.223470
v 0.190839 0.621220 0.172167
v 0.190839 0.621220 0.223470
v 0.246231 0.621220 0.172167
v 0.246231 0.621220 0.223470
v -0.176649 0.654109 0.067061
v -0.176649 0.654109 -0.067061
v -0.285115 0.654109 0.067061
v -0.285115 0.654109 -0.067061
v -0.285115 0.614612 -0.067061
v -0.285115 0.614612 0.067061
v -0.176649 0.614612 -0.067061
v -0.176649 0.614612 0.067061
v -0.227172 0.652947 0.031958
v -0.227172 0.655863 0.031958
v -0.217409 0.652947 0.037594
v -0.217409 0.655863 0.037594
v -0.217409 0.652947 0.048868
v -0.217409 0.655863 0.048868
v -0.227172 0.652947 0.054504
v -0.227172 0.655863 0.054504
v -0.236935 0.652947 0.048868
v -0.236935 0.655863 0.048868
v -0.236935 0.652947 0.037594
v -0.236935 0.655863 0.037594
v -0.227172 0.652947 -0.031958
v -0.227172 0.655863 -0.031958
v -0.217409 0.652947 -0.037594
v -0.217409 0.655863 -0.037594
v -0.217409 0.652947 -0.048868
v -0.217409 0.655863 -0.048868
v -0.227172 0.652947 -0.054504
v -0.227172 0.655863 -0.054504
v -0.236935 0.652947 -0.048868
v -0.236935 0.655863 -0.048868
v -0.236935 0.652947 -0.037594
v -0.236935 0.655863 -0.037594
vt 0.240464 0.908958
vt 0.230439 0.908958
vt 0.230439 0.725093
vt 0.240464 0.725093
vt 0.178520 0.725421
vt 0.178520 0.910930
vt 0.169474 0.910930
vt 0.169474 0.725421
vt 0.002321 0.171352
vt 0.151511 0.171352
vt 0.151511 0.338151
vt 0.002321 0.338151
vt 0.179566 0.910808
vt 0.179566 0.725298
vt 0.188612 0.725298
vt 0.188612 0.910808
vt 0.151718 0.168602
vt 0.002528 0.168602
vt 0.002528 0.001803
vt 0.151718 0.001803
vt 0.190236 0.725487
vt 0.200292 0.725487
vt 0.200292 0.909935
vt 0.190236 0.909935
vt 0.262716 0.725353
vt 0.262716 0.908219
vt 0.261171 0.908219
vt 0.261171 0.725353
vt 0.259626 0.908219
vt 0.259626 0.725353
vt 0.258082 0.908219
vt 0.258082 0.725353
vt 0.256537 0.908219
vt 0.256537 0.725353
vt 0.254992 0.908219
vt 0.254992 0.725353
vt 0.253447 0.908219
vt 0.253447 0.725353
vt 0.251903 0.908219
vt 0.251903 0.725353
vt 0.250358 0.908219
vt 0.250358 0.725353
vt 0.248813 0.908219
vt 0.248813 0.725353
vt 0.247269 0.908219
vt 0.247269 0.725353
vt 0.245724 0.908219
vt 0.245724 0.725353
vt 0.244179 0.908219
vt 0.244179 0.725353
vt 0.242635 0.908219
vt 0.242635 0.725353
vt 0.270439 0.725353
vt 0.270439 0.908219
vt 0.268895 0.908219
vt 0.268895 0.725353
vt 0.267350 0.908219
vt 0.267350 0.725353
vt 0.265805 0.908219
vt 0.265805 0.725353
vt 0.264260 0.908219
vt 0.264260 0.725353
vt 0.876350 0.856928
vt 0.876350 0.858773
vt 0.855518 0.858773
vt 0.855518 0.856928
vt 0.876350 0.834214
vt 0.855518 0.834214
vt 0.876350 0.881549
vt 0.876350 0.904247
vt 0.855518 0.904247
vt 0.855518 0.881549
vt 0.876350 0.879690
vt 0.855518 0.879690
vt 0.876350 0.877367
vt 0.855518 0.877367
vt 0.876350 0.875043
vt 0.855518 0.875043
vt 0.876350 0.872719
vt 0.855518 0.872719
vt 0.876350 0.870394
vt 0.855518 0.870394
vt 0.876350 0.868070
vt 0.855518 0.868070
vt 0.876350 0.865745
vt 0.855518 0.865745
vt 0.876350 0.863421
vt 0.855518 0.863421
vt 0.876350 0.861097
vt 0.855518 0.861097
vt 0.305695 0.945470
vt 0.301267 0.944685
vt 0.302017 0.942633
vt 0.305697 0.943285
vt 0.305793 0.922358
vt 0.308579 0.922258
vt 0.308911 0.923940
vt 0.305791 0.924066
vt 0.302332 0.922963
vt 0.302914 0.924569
vt 0.297376 0.942434
vt 0.294489 0.938987
vt 0.296382 0.937896
vt 0.298782 0.940762
vt 0.292955 0.934761
vt 0.295107 0.934383
vt 0.292959 0.930265
vt 0.295110 0.930646
vt 0.294500 0.926041
vt 0.296392 0.927135
vt 0.297394 0.922599
vt 0.298797 0.924275
vt 0.301289 0.920355
vt 0.302035 0.922409
vt 0.305717 0.919601
vt 0.305716 0.921763
vt 0.309314 0.919604
vt 0.309676 0.921767
vt 0.353220 0.919643
vt 0.353218 0.921805
vt 0.028811 0.712211
vt 0.069520 0.712029
vt 0.069133 0.714024
vt 0.028820 0.714204
vt 0.309260 0.945606
vt 0.309689 0.943455
vt 0.342914 0.922303
vt 0.342912 0.923984
vt 0.000659 0.722546
vt 0.034903 0.722393
vt 0.034626 0.724081
vt 0.000667 0.724232
vt 0.308577 0.942578
vt 0.305766 0.942574
vt 0.305769 0.940884
vt 0.308864 0.940888
vt 0.302307 0.941977
vt 0.302893 0.940373
vt 0.299266 0.940216
vt 0.300366 0.938910
vt 0.297011 0.937522
vt 0.298492 0.936670
vt 0.295814 0.934219
vt 0.297496 0.933924
vt 0.295819 0.930705
vt 0.297500 0.931004
vt 0.297025 0.927405
vt 0.298503 0.928261
vt 0.299287 0.924716
vt 0.300383 0.926026
vt 0.068887 0.717178
vt 0.068894 0.718930
vt 0.036240 0.719076
vt 0.036232 0.717323
vt 0.035676 0.721225
vt 0.000809 0.721381
vt 0.000801 0.719519
vt 0.035668 0.719364
vt 0.028075 0.642836
vt 0.008698 0.642836
vt 0.008698 0.621900
vt 0.028075 0.621900
vt 0.007581 0.587603
vt 0.027427 0.587603
vt 0.027427 0.609031
vt 0.007581 0.609031
vt 0.834260 0.856948
vt 0.855093 0.856948
vt 0.855093 0.858793
vt 0.834260 0.858793
vt 0.834260 0.834234
vt 0.855093 0.834234
vt 0.834260 0.881569
vt 0.855093 0.881569
vt 0.855093 0.904267
vt 0.834260 0.904267
vt 0.834260 0.879710
vt 0.855093 0.879710
vt 0.834260 0.877388
vt 0.855093 0.877388
vt 0.834260 0.875063
vt 0.855093 0.875063
vt 0.834260 0.872739
vt 0.855093 0.872739
vt 0.834260 0.870415
vt 0.855093 0.870415
vt 0.834260 0.868090
vt 0.855093 0.868090
vt 0.834260 0.865766
vt 0.855093 0.865766
vt 0.834260 0.863442
vt 0.855093 0.863442
vt 0.834260 0.861117
vt 0.855093 0.861117
vt 0.304730 0.916382
vt 0.304736 0.919120
vt 0.300127 0.919942
vt 0.299186 0.917372
vt 0.304276 0.952782
vt 0.304269 0.949365
vt 0.310512 0.949612
vt 0.309851 0.952977
vt 0.297350 0.951576
vt 0.298512 0.948363
vt 0.294314 0.920198
vt 0.296077 0.922292
vt 0.293076 0.925884
vt 0.290702 0.924521
vt 0.291484 0.930287
vt 0.288787 0.929817
vt 0.291494 0.934969
vt 0.288799 0.935450
vt 0.293104 0.939365
vt 0.290736 0.940738
vt 0.296121 0.942945
vt 0.294366 0.945046
vt 0.300181 0.945277
vt 0.299250 0.947852
vt 0.304793 0.946080
vt 0.304799 0.948790
vt 0.309754 0.946070
vt 0.309303 0.948780
vt 0.069352 0.714554
vt 0.069023 0.716560
vt 0.028680 0.716739
vt 0.028671 0.714735
vt 0.364238 0.916091
vt 0.364243 0.918787
vt 0.309737 0.918901
vt 0.309197 0.916207
vt 0.069734 0.722022
vt 0.069408 0.723702
vt 0.035473 0.723853
vt 0.035466 0.722175
vt 0.378465 0.912177
vt 0.378472 0.915559
vt 0.310390 0.915702
vt 0.309814 0.912321
vt 0.304198 0.915715
vt 0.304191 0.912333
vt 0.298446 0.916741
vt 0.297270 0.913533
vt 0.293391 0.919673
vt 0.291190 0.917061
vt 0.289644 0.924158
vt 0.286682 0.922455
vt 0.287657 0.929653
vt 0.284291 0.929067
vt 0.287670 0.935496
vt 0.284306 0.936096
vt 0.289680 0.940983
vt 0.286725 0.942698
vt 0.293445 0.945452
vt 0.291254 0.948073
vt 0.036221 0.719428
vt 0.068876 0.719282
vt 0.068884 0.721035
vt 0.036229 0.721180
vt 0.000701 0.719134
vt 0.000693 0.717273
vt 0.035560 0.717117
vt 0.035568 0.718979
vt 0.042491 0.643127
vt 0.042491 0.621867
vt 0.062166 0.621867
vt 0.062166 0.643127
vt 0.028465 0.655562
vt 0.028465 0.675350
vt 0.010137 0.675350
vt 0.010137 0.655562
vt 0.385485 0.655221
vt 0.351557 0.655221
vt 0.351557 0.613269
vt 0.385485 0.613269
vt 0.493054 0.935227
vt 0.459015 0.935241
vt 0.458998 0.893150
vt 0.493037 0.893136
vt 0.282899 0.723886
vt 0.297461 0.723886
vt 0.297461 0.773337
vt 0.282899 0.773337
vt 0.910913 0.884162
vt 0.897232 0.884162
vt 0.897232 0.846591
vt 0.910913 0.846591
vt 0.297439 0.774131
vt 0.297439 0.823582
vt 0.282877 0.823582
vt 0.282877 0.774131
vt 0.948435 0.917292
vt 0.948311 0.930972
vt 0.910741 0.930630
vt 0.910866 0.916950
vt 0.587730 0.717061
vt 0.587721 0.720872
vt 0.572990 0.720836
vt 0.572999 0.717025
vt 0.558258 0.720799
vt 0.558267 0.716989
vt 0.543526 0.720763
vt 0.543535 0.716953
vt 0.528794 0.720727
vt 0.528803 0.716916
vt 0.053181 0.654775
vt 0.062360 0.660075
vt 0.062360 0.670673
vt 0.053181 0.675973
vt 0.514062 0.720691
vt 0.514072 0.716880
vt 0.499331 0.720655
vt 0.499340 0.716845
vt 0.044003 0.660075
vt 0.044003 0.670673
vt 0.662522 0.716811
vt 0.677254 0.716848
vt 0.677244 0.720658
vt 0.662513 0.720622
vt 0.588863 0.716631
vt 0.603595 0.716667
vt 0.603586 0.720477
vt 0.588854 0.720441
vt 0.618327 0.716703
vt 0.618318 0.720513
vt 0.633059 0.716739
vt 0.633049 0.720549
vt 0.016570 0.710113
vt 0.016570 0.683715
vt 0.028001 0.690314
vt 0.028001 0.703514
vt 0.647790 0.716775
vt 0.647781 0.720586
vt 0.005139 0.703514
vt 0.005139 0.690314
vn 0.0000 0.0000 -1.0000
vn -1.0000 0.0000 0.0000
vn 0.0000 1.0000 0.0000
vn 1.0000 0.0000 0.0000
vn 0.0000 -1.0000 0.0000
vn 0.0000 0.0000 1.0000
vn -0.3420 -0.9397 0.0000
vn -0.6428 -0.7660 0.0000
vn -0.8660 -0.5000 0.0000
vn -0.9848 -0.1736 0.0000
vn -0.9848 0.1736 0.0000
vn -0.8660 0.5000 0.0000
vn -0.6428 0.7660 0.0000
vn -0.3420 0.9397 -0.0000
vn 0.3420 0.9397 -0.0000
vn 0.6428 0.7660 0.0000
vn 0.8660 0.5000 0.0000
vn 0.9848 0.1736 0.0000
vn 0.9848 -0.1736 0.0000
vn 0.8660 -0.5000 0.0000
vn 0.6428 -0.7660 0.0000
vn 0.3420 -0.9397 0.0000
vn 0.0028 -1.0000 -0.0000
vn 0.1135 -0.9935 0.0000
vn 0.0146 0.9999 0.0000
vn 0.3397 0.9405 0.0000
vn 0.8660 0.0000 -0.5000
vn 0.8660 0.0000 0.5000
vn -0.8660 0.0000 0.5000
vn -0.8660 0.0000 -0.5000
g Cell_2_Door_Cell_2_Door_Cell_2
usemtl Cell_2
s 1
f 3/1/1 4/2/1 8/3/1 7/4/1
f 3/5/2 1/6/2 2/7/2 4/8/2
f 2/9/3 6/10/3 8/11/3 4/12/3
f 5/13/4 7/14/4 8/15/4 6/16/4
f 5/17/5 1/18/5 3/19/5 7/20/5
f 5/21/6 6/22/6 2/23/6 1/24/6
f 44/25/7 43/26/7 41/27/8 42/28/8
f 42/28/8 41/27/8 39/29/9 40/30/9
f 40/30/9 39/29/9 37/31/10 38/32/10
f 38/32/10 37/31/10 35/33/11 36/34/11
f 36/34/11 35/33/11 33/35/12 34/36/12
f 34/36/12 33/35/12 31/37/13 32/38/13
f 32/38/13 31/37/13 29/39/14 30/40/14
f 30/40/14 29/39/14 27/41/3 28/42/3
f 28/42/3 27/41/3 25/43/15 26/44/15
f 26/44/15 25/43/15 23/45/16 24/46/16
f 24/46/16 23/45/16 21/47/17 22/48/17
f 22/48/17 21/47/17 19/49/18 20/50/18
f 20/50/18 19/49/18 17/51/19 18/52/19
f 18/53/19 17/54/19 15/55/20 16/56/20
f 16/56/20 15/55/20 13/57/21 14/58/21
f 14/58/21 13/57/21 11/59/22 12/60/22
f 12/60/22 11/59/22 9/61/5 10/62/5
f 44/25/7 10/62/5 9/61/5 43/26/7
f 72/63/23 62/64/24 61/65/24 71/66/23
f 70/67/5 72/63/23 71/66/23 69/68/5
f 66/69/3 68/70/3 67/71/3 65/72/3
f 64/73/25 66/69/3 65/72/3 63/74/25
f 45/75/26 64/73/25 63/74/25 46/76/26
f 47/77/16 45/75/26 46/76/26 48/78/16
f 49/79/17 47/77/16 48/78/16 50/80/17
f 51/81/18 49/79/17 50/80/17 52/82/18
f 53/83/19 51/81/18 52/82/18 54/84/19
f 55/85/20 53/83/19 54/84/19 56/86/20
f 57/87/21 55/85/20 56/86/20 58/88/21
f 59/89/22 57/87/21 58/88/21 60/90/22
f 62/64/24 59/89/22 60/90/22 61/65/24
f 61/91/6 60/92/6 88/93/6 89/94/6
f 62/95/1 72/96/1 100/97/1 90/98/1
f 59/99/1 62/95/1 90/98/1 87/100/1
f 58/101/6 56/102/6 84/103/6 86/104/6
f 56/102/6 54/105/6 82/106/6 84/103/6
f 54/105/6 52/107/6 80/108/6 82/106/6
f 52/107/6 50/109/6 78/110/6 80/108/6
f 50/109/6 48/111/6 76/112/6 78/110/6
f 48/111/6 46/113/6 74/114/6 76/112/6
f 46/113/6 63/115/6 91/116/6 74/114/6
f 63/115/6 65/117/6 93/118/6 91/116/6
f 65/117/6 67/119/6 95/120/6 93/118/6
f 69/121/6 71/122/6 99/123/6 97/124/6
f 71/125/6 61/91/6 89/94/6 99/126/6
f 60/92/6 58/101/6 86/104/6 88/93/6
f 72/96/1 70/127/1 98/128/1 100/97/1
f 68/129/1 66/130/1 94/131/1 96/132/1
f 66/133/1 64/134/1 92/135/1 94/136/1
f 64/134/1 45/137/1 73/138/1 92/135/1
f 45/137/1 47/139/1 75/140/1 73/138/1
f 47/139/1 49/141/1 77/142/1 75/140/1
f 49/141/1 51/143/1 79/144/1 77/142/1
f 51/143/1 53/145/1 81/146/1 79/144/1
f 53/145/1 55/147/1 83/148/1 81/146/1
f 55/147/1 57/149/1 85/150/1 83/148/1
f 57/149/1 59/99/1 87/100/1 85/150/1
f 68/151/2 96/152/2 95/153/2 67/154/2
f 70/155/2 69/156/2 97/157/2 98/158/2
f 95/159/5 96/160/5 94/161/5 93/162/5
f 99/163/3 100/164/3 98/165/3 97/166/3
f 128/167/23 127/168/23 117/169/24 118/170/24
f 126/171/5 125/172/5 127/168/23 128/167/23
f 122/173/3 121/174/3 123/175/3 124/176/3
f 120/177/25 119/178/25 121/174/3 122/173/3
f 101/179/26 102/180/26 119/178/25 120/177/25
f 103/181/16 104/182/16 102/180/26 101/179/26
f 105/183/17 106/184/17 104/182/16 103/181/16
f 107/185/18 108/186/18 106/184/17 105/183/17
f 109/187/19 110/188/19 108/186/18 107/185/18
f 111/189/20 112/190/20 110/188/19 109/187/19
f 113/191/21 114/192/21 112/190/20 111/189/20
f 115/193/22 116/194/22 114/192/21 113/191/21
f 118/170/24 117/169/24 116/194/22 115/193/22
f 117/195/1 145/196/1 144/197/1 116/198/1
f 118/199/6 146/200/6 156/201/6 128/202/6
f 115/203/6 143/204/6 146/200/6 118/199/6
f 114/205/1 142/206/1 140/207/1 112/208/1
f 112/208/1 140/207/1 138/209/1 110/210/1
f 110/210/1 138/209/1 136/211/1 108/212/1
f 108/212/1 136/211/1 134/213/1 106/214/1
f 106/214/1 134/213/1 132/215/1 104/216/1
f 104/216/1 132/215/1 130/217/1 102/218/1
f 102/218/1 130/217/1 147/219/1 119/220/1
f 119/220/1 147/219/1 149/221/1 121/222/1
f 121/223/1 149/224/1 151/225/1 123/226/1
f 125/227/1 153/228/1 155/229/1 127/230/1
f 127/230/1 155/229/1 145/196/1 117/195/1
f 116/198/1 144/197/1 142/206/1 114/205/1
f 128/231/6 156/232/6 154/233/6 126/234/6
f 124/235/6 152/236/6 150/237/6 122/238/6
f 122/238/6 150/237/6 148/239/6 120/240/6
f 120/240/6 148/239/6 129/241/6 101/242/6
f 101/242/6 129/241/6 131/243/6 103/244/6
f 103/244/6 131/243/6 133/245/6 105/246/6
f 105/246/6 133/245/6 135/247/6 107/248/6
f 107/248/6 135/247/6 137/249/6 109/250/6
f 109/250/6 137/249/6 139/251/6 111/252/6
f 111/252/6 139/251/6 141/253/6 113/254/6
f 113/254/6 141/253/6 143/204/6 115/203/6
f 124/255/2 123/256/2 151/257/2 152/258/2
f 126/259/2 154/260/2 153/261/2 125/262/2
f 151/263/5 149/264/5 150/265/5 152/266/5
f 155/267/3 153/268/3 154/269/3 156/270/3
f 164/271/5 162/272/5 161/273/5 163/274/5
f 159/275/3 157/276/3 158/277/3 160/278/3
f 160/279/2 161/280/2 162/281/2 159/282/2
f 159/283/6 162/284/6 164/285/6 157/286/6
f 164/287/4 163/288/4 158/289/4 157/290/4
f 161/291/1 160/292/1 158/293/1 163/294/1
f 165/295/1 166/296/1 168/297/27 167/298/27
f 167/298/27 168/297/27 170/299/28 169/300/28
f 169/300/28 170/299/28 172/301/6 171/302/6
f 171/302/6 172/301/6 174/303/29 173/304/29
f 166/305/3 176/306/3 174/307/3 172/308/3
f 173/304/29 174/303/29 176/309/30 175/310/30
f 175/310/30 176/309/30 166/311/1 165/312/1
f 168/313/3 166/305/3 172/308/3 170/314/3
f 177/315/6 179/316/28 180/317/28 178/318/6
f 179/319/28 181/320/27 182/321/27 180/322/28
f 181/320/27 183/323/1 184/324/1 182/321/27
f 183/323/1 185/325/30 186/326/30 184/324/1
f 178/327/3 184/328/3 186/329/3 188/330/3
f 185/325/30 187/331/29 188/332/29 186/326/30
f 187/331/29 177/315/6 178/318/6 188/332/29
f 180/333/3 182/334/3 184/328/3 178/327/3
