# Blender v3.6.5 OBJ File: 'Cell 1_3.blend'
# www.blender.org
mtllib Cell_1_Door.mtl
o Cell_1_Door
v 0.323310 -0.055706 -0.053616
v 0.323310 0.055533 -0.053616
v 0.353443 -0.055706 -0.053616
v 0.353443 0.055533 -0.053616
v 0.323310 -0.055706 -0.161713
v 0.323310 0.055533 -0.161713
v 0.353443 -0.055706 -0.161713
v 0.353443 0.055533 -0.161713
v 0.345591 0.575920 -0.146863
v 0.345591 0.575920 -0.111176
v 0.330537 0.575920 -0.146863
v 0.330537 0.575920 -0.111176
v 0.345591 -0.576093 -0.146863
v 0.345591 -0.576093 -0.111176
v 0.330537 -0.576093 -0.146863
v 0.330537 -0.576093 -0.111176
v 0.345591 0.575920 -0.029094
v 0.345591 0.575920 0.006594
v 0.330537 0.575920 -0.029094
v 0.330537 0.575920 0.006594
v 0.345591 -0.576093 -0.029094
v 0.345591 -0.576093 0.006594
v 0.330537 -0.576093 -0.029094
v 0.330537 -0.576093 0.006594
v 0.345591 0.575920 0.088675
v 0.345591 0.575920 0.124363
v 0.330537 0.575920 0.088675
v 0.330537 0.575920 0.124363
v 0.345591 -0.576093 0.088675
v 0.345591 -0.576093 0.124363
v 0.330537 -0.576093 0.088675
v 0.330537 -0.576093 0.124363
v 0.330537 -0.049656 -0.109609
v 0.330537 -0.049656 -0.145296
v 0.345591 -0.049656 -0.109609
v 0.345591 -0.049656 -0.145296
v 0.330537 0.370114 0.004504
v 0.330537 0.370114 -0.031183
v 0.345591 0.370114 0.004504
v 0.345591 0.370114 -0.031183
v 0.330537 0.070921 0.121751
v 0.330537 0.070921 0.086064
v 0.345591 0.070921 0.121751
v 0.345591 0.070921 0.086064
v 0.330537 -0.485739 0.122796
v 0.330537 -0.485739 0.087108
v 0.345591 -0.485739 0.122796
v 0.345591 -0.485739 0.087108
v 0.330537 -0.300954 0.008161
v 0.330537 -0.300954 -0.027527
v 0.345591 -0.300954 0.008161
v 0.345591 -0.300954 -0.027527
v 0.348995 0.578413 0.165297
v 0.348995 0.578413 -0.165440
v 0.327134 0.578413 -0.165440
v 0.327134 0.578413 0.165297
v 0.348995 0.564142 0.165297
v 0.348995 0.564142 -0.165440
v 0.327134 0.564142 0.165297
v 0.327134 0.564142 -0.165440
v 0.348995 0.220264 0.165297
v 0.348995 0.220264 -0.165440
v 0.327134 0.220264 -0.165440
v 0.327134 0.220264 0.165297
v 0.348995 0.205994 0.165297
v 0.348995 0.205994 -0.165440
v 0.327134 0.205994 0.165297
v 0.327134 0.205994 -0.165440
v 0.348995 -0.578586 0.165297
v 0.348995 -0.578586 -0.165440
v 0.327134 -0.578586 -0.165440
v 0.327134 -0.578586 0.165297
v 0.348995 -0.564315 0.165297
v 0.348995 -0.564315 -0.165440
v 0.327134 -0.564315 0.165297
v 0.327134 -0.564315 -0.165440
v 0.348995 -0.220437 0.165297
v 0.348995 -0.220437 -0.165440
v 0.327134 -0.220437 -0.165440
v 0.327134 -0.220437 0.165297
v 0.348995 -0.206167 0.165297
v 0.348995 -0.206167 -0.165440
v 0.327134 -0.206167 0.165297
v 0.327134 -0.206167 -0.165440
v 0.337633 -0.594342 0.143394
v 0.337633 0.592283 0.143394
v 0.340542 -0.594342 0.143907
v 0.340542 0.592283 0.143907
v 0.343100 -0.594342 0.145384
v 0.343100 0.592283 0.145384
v 0.344999 -0.594342 0.147647
v 0.344999 0.592283 0.147647
v 0.346009 -0.594342 0.150423
v 0.346009 0.592283 0.150423
v 0.346009 -0.594342 0.153377
v 0.346009 0.592283 0.153377
v 0.344999 -0.594342 0.156153
v 0.344999 0.592283 0.156153
v 0.343100 -0.594342 0.158416
v 0.343100 0.592283 0.158416
v 0.340542 -0.594342 0.159893
v 0.340542 0.592283 0.159893
v 0.337633 -0.594342 0.160406
v 0.337633 0.592283 0.160406
v 0.334723 -0.594342 0.159893
v 0.334723 0.592283 0.159893
v 0.332165 -0.594342 0.158416
v 0.332165 0.592283 0.158416
v 0.330266 -0.594342 0.156153
v 0.330266 0.592283 0.156153
v 0.329256 -0.594342 0.153377
v 0.329256 0.592283 0.153377
v 0.329256 -0.594342 0.150423
v 0.329256 0.592283 0.150423
v 0.330266 -0.594342 0.147647
v 0.330266 0.592283 0.147647
v 0.332165 -0.594342 0.145384
v 0.332165 0.592283 0.145384
v 0.334723 -0.594342 0.143907
v 0.334723 0.592283 0.143907
v 0.337633 0.407211 0.139215
v 0.340542 0.407211 0.139728
v 0.343100 0.407211 0.141205
v 0.344999 0.407211 0.143468
v 0.346009 0.407211 0.146244
v 0.346009 0.407211 0.149198
v 0.344999 0.407211 0.151974
v 0.343100 0.407211 0.154237
v 0.340542 0.407211 0.155714
v 0.337633 0.407211 0.156227
v 0.334723 0.407211 0.155714
v 0.332165 0.407211 0.154237
v 0.330266 0.407211 0.151974
v 0.329256 0.407211 0.149198
v 0.329256 0.407211 0.146244
v 0.330266 0.407211 0.143468
v 0.332165 0.407211 0.141205
v 0.334723 0.407211 0.139728
v 0.340542 -0.436002 0.146355
v 0.343100 -0.436002 0.147832
v 0.344999 -0.436002 0.150095
v 0.346009 -0.436002 0.152871
v 0.346009 -0.436002 0.155825
v 0.344999 -0.436002 0.158601
v 0.343100 -0.436002 0.160863
v 0.340542 -0.436002 0.162341
v 0.337633 -0.436002 0.162853
v 0.334723 -0.436002 0.162341
v 0.332165 -0.436002 0.160863
v 0.330266 -0.436002 0.158601
v 0.329256 -0.436002 0.155825
v 0.329256 -0.436002 0.152871
v 0.330266 -0.436002 0.150095
v 0.332165 -0.436002 0.147832
v 0.334723 -0.436002 0.146355
v 0.337633 -0.436002 0.145842
vt 0.437615 0.441684
vt 0.437615 0.552235
vt 0.330187 0.552235
vt 0.330187 0.441684
vt 0.469224 0.554059
vt 0.469462 0.524910
vt 0.577066 0.525792
vt 0.576827 0.554940
vt 0.470645 0.492393
vt 0.578249 0.493274
vt 0.578010 0.522423
vt 0.470407 0.521541
vt 0.384272 0.687766
vt 0.384226 0.669981
vt 0.448022 0.669817
vt 0.448068 0.687602
vt 0.704371 0.598624
vt 0.704371 0.705435
vt 0.600578 0.705435
vt 0.600578 0.598624
vt 0.470685 0.487525
vt 0.470924 0.458377
vt 0.575487 0.459233
vt 0.575249 0.488382
vt 0.646905 0.893988
vt 0.449126 0.893055
vt 0.449150 0.879647
vt 0.646928 0.880580
vt 0.211640 0.894027
vt 0.446664 0.895025
vt 0.446641 0.908432
vt 0.211617 0.907435
vt 0.637658 0.870680
vt 0.450139 0.870354
vt 0.450148 0.864992
vt 0.637668 0.865318
vt 0.211693 0.864383
vt 0.211683 0.870038
vt 0.013903 0.869694
vt 0.013913 0.864039
vt 0.552436 0.926053
vt 0.449071 0.925100
vt 0.449118 0.911693
vt 0.552483 0.912646
vt 0.804549 0.929170
vt 0.881870 0.928382
vt 0.881870 0.941790
vt 0.804550 0.942578
vt 0.117247 0.884696
vt 0.013877 0.884516
vt 0.013887 0.878861
vt 0.117257 0.879040
vt 0.117244 0.886452
vt 0.117234 0.892108
vt 0.013864 0.891928
vt 0.013874 0.886272
vt 0.483044 0.909258
vt 0.449097 0.909788
vt 0.449121 0.896380
vt 0.483067 0.895850
vt 0.256911 0.910839
vt 0.446638 0.910188
vt 0.446615 0.923595
vt 0.256888 0.924246
vt 0.047841 0.877164
vt 0.013890 0.877105
vt 0.013900 0.871450
vt 0.047850 0.871509
vt 0.483113 0.872295
vt 0.483104 0.877951
vt 0.449153 0.877892
vt 0.449163 0.872236
vt 0.446718 0.864791
vt 0.446709 0.870447
vt 0.860491 0.871068
vt 0.860501 0.865705
vt 0.013860 0.894272
vt 0.013837 0.907680
vt 0.881931 0.893808
vt 0.881954 0.880400
vt 0.446688 0.887025
vt 0.446678 0.892681
vt 0.369354 0.892546
vt 0.369364 0.886891
vt 0.446690 0.885270
vt 0.369366 0.885135
vt 0.369376 0.879479
vt 0.446700 0.879614
vt 0.552433 0.927809
vt 0.552434 0.941216
vt 0.881873 0.926626
vt 0.804555 0.925569
vt 0.804603 0.912161
vt 0.881920 0.913219
vt 0.881975 0.872989
vt 0.881965 0.878645
vt 0.692238 0.878315
vt 0.692247 0.872659
vt 0.446702 0.877858
vt 0.256975 0.877528
vt 0.256985 0.871872
vt 0.446712 0.872202
vt 0.047778 0.910083
vt 0.047755 0.923490
vt 0.881901 0.910540
vt 0.692178 0.909229
vt 0.692202 0.895821
vt 0.881925 0.897133
vt 0.013834 0.909435
vt 0.013811 0.922842
vt 0.449065 0.928403
vt 0.449066 0.941810
vt 0.459600 0.845662
vt 0.291681 0.845614
vt 0.291684 0.834514
vt 0.459603 0.834563
vt 0.948028 0.896044
vt 0.948001 0.885512
vt 0.964137 0.885469
vt 0.964164 0.896002
vt 0.130750 0.585017
vt 0.002017 0.584057
vt 0.002080 0.575548
vt 0.130813 0.576508
vt 0.629312 0.833599
vt 0.629310 0.840845
vt 0.461391 0.840796
vt 0.461393 0.833551
vt 0.532624 0.824856
vt 0.700543 0.824904
vt 0.700541 0.832149
vt 0.532622 0.832101
vt 0.965580 0.907297
vt 0.965553 0.896764
vt 0.981689 0.896722
vt 0.981716 0.907255
vt 0.156330 0.065661
vt 0.300483 0.066096
vt 0.300454 0.075624
vt 0.156301 0.075189
vt 0.997626 0.941422
vt 0.987093 0.941513
vt 0.986954 0.925377
vt 0.997486 0.925287
vt 0.448900 0.649048
vt 0.321003 0.648523
vt 0.321037 0.640069
vt 0.448935 0.640595
vt 0.321313 0.662518
vt 0.321335 0.657000
vt 0.449233 0.657525
vt 0.449210 0.663044
vt 0.300594 0.029365
vt 0.156441 0.028930
vt 0.156459 0.022710
vt 0.300613 0.023145
vt 0.948172 0.907820
vt 0.948145 0.897287
vt 0.964281 0.897245
vt 0.964308 0.907778
vt 0.156406 0.040495
vt 0.156435 0.030966
vt 0.300588 0.031402
vt 0.300559 0.040930
vt 0.987224 0.924352
vt 0.987085 0.908216
vt 0.997617 0.908125
vt 0.997757 0.924261
vt 0.131153 0.587480
vt 0.131090 0.595989
vt 0.002357 0.595029
vt 0.002420 0.586520
vt 0.291950 0.847193
vt 0.459869 0.847241
vt 0.459867 0.854486
vt 0.291948 0.854438
vt 0.362331 0.832052
vt 0.362333 0.824807
vt 0.530252 0.824855
vt 0.530250 0.832100
vt 0.964984 0.885024
vt 0.981120 0.884981
vt 0.981147 0.895514
vt 0.965011 0.895557
vt 0.156336 0.063624
vt 0.156365 0.054096
vt 0.300518 0.054531
vt 0.300489 0.064059
vt 0.981786 0.884955
vt 0.997922 0.884913
vt 0.997949 0.895446
vt 0.981813 0.895488
vt 0.300553 0.042966
vt 0.300524 0.052495
vt 0.156371 0.052060
vt 0.156400 0.042531
vt 0.448112 0.622082
vt 0.320215 0.621557
vt 0.320237 0.616038
vt 0.448135 0.616564
vt 0.449567 0.650531
vt 0.449544 0.656049
vt 0.321646 0.655524
vt 0.321669 0.650005
vt 0.982558 0.897084
vt 0.998694 0.897042
vt 0.998721 0.907575
vt 0.982585 0.907617
vt 0.377741 0.932130
vt 0.447164 0.932283
vt 0.447166 0.933393
vt 0.377741 0.933237
vt 0.447176 0.934504
vt 0.377740 0.934344
vt 0.447193 0.935614
vt 0.377746 0.935451
vt 0.447214 0.936723
vt 0.377752 0.936559
vt 0.447236 0.937831
vt 0.377758 0.937667
vt 0.447257 0.938939
vt 0.377762 0.938776
vt 0.447274 0.940047
vt 0.377765 0.939885
vt 0.447284 0.941154
vt 0.377767 0.940995
vt 0.447286 0.942261
vt 0.377767 0.942105
vt 0.447279 0.943368
vt 0.377764 0.943215
vt 0.447264 0.944475
vt 0.377759 0.944324
vt 0.447242 0.945582
vt 0.377750 0.945433
vt 0.377793 0.925485
vt 0.447286 0.925626
vt 0.447261 0.926735
vt 0.377783 0.926594
vt 0.447233 0.927843
vt 0.377772 0.927702
vt 0.447208 0.928952
vt 0.377763 0.928809
vt 0.447186 0.930062
vt 0.377755 0.929917
vt 0.447171 0.931172
vt 0.377748 0.931024
vt 0.061283 0.930481
vt 0.061282 0.931591
vt 0.061285 0.929370
vt 0.061290 0.928261
vt 0.061295 0.927152
vt 0.061301 0.926043
vt 0.061307 0.924935
vt 0.061279 0.943783
vt 0.061273 0.944890
vt 0.061285 0.942675
vt 0.061289 0.941568
vt 0.061290 0.940461
vt 0.061289 0.939354
vt 0.061286 0.938247
vt 0.061284 0.937139
vt 0.061281 0.936030
vt 0.061280 0.934921
vt 0.061280 0.933811
vt 0.061281 0.932701
vt 0.001831 0.931495
vt 0.001832 0.932602
vt 0.001839 0.933708
vt 0.001850 0.934815
vt 0.001864 0.935922
vt 0.001879 0.937030
vt 0.001893 0.938138
vt 0.001904 0.939247
vt 0.001911 0.940356
vt 0.001912 0.941465
vt 0.001907 0.942574
vt 0.001897 0.943683
vt 0.001882 0.944791
vt 0.001914 0.924853
vt 0.001896 0.925961
vt 0.001878 0.927068
vt 0.001860 0.928175
vt 0.001845 0.929282
vt 0.001835 0.930389
vn 1.0000 0.0000 0.0000
vn 0.0000 0.0000 -1.0000
vn 0.0000 0.0000 1.0000
vn 0.0000 -1.0000 0.0000
vn -1.0000 0.0000 0.0000
vn 0.0000 1.0000 0.0000
vn 0.0000 0.0002 -1.0000
vn 0.0000 0.0030 -1.0000
vn 0.0000 -0.0002 1.0000
vn 0.0000 -0.0030 1.0000
vn 0.0000 0.0001 -1.0000
vn 0.0000 0.0057 -1.0000
vn 0.0000 -0.0001 1.0000
vn 0.0000 -0.0057 1.0000
vn 0.0000 -0.0096 -1.0000
vn 0.0000 -0.0173 -0.9998
vn 0.0000 0.0096 1.0000
vn 0.0000 0.0173 0.9998
vn 0.0000 0.0025 1.0000
vn 0.0000 -0.0025 -1.0000
vn 0.0000 -0.0102 0.9999
vn 0.0000 -0.0024 1.0000
vn 0.0000 0.0102 -0.9999
vn 0.0000 0.0024 -1.0000
vn 0.0000 -0.0052 1.0000
vn 0.0000 -0.0016 1.0000
vn 0.0000 0.0052 -1.0000
vn 0.0000 0.0016 -1.0000
vn -0.0000 -0.3130 -0.9498
vn 0.0000 0.0226 -0.9997
vn 0.3215 0.0250 -0.9466
vn 0.3514 -0.3084 -0.8839
vn 0.6032 0.0441 -0.7964
vn 0.6473 -0.2929 -0.7037
vn 0.8160 0.0962 -0.5699
vn 0.8659 -0.2525 -0.4318
vn 0.9878 -0.0228 -0.1539
vn 0.9894 -0.1409 -0.0338
vn 0.9444 0.3259 -0.0426
vn 0.9822 0.0339 0.1850
vn 0.8916 0.0585 0.4491
vn 0.7894 0.2704 0.5511
vn 0.6674 0.0087 0.7446
vn 0.5272 0.4184 0.7396
vn 0.3560 -0.0146 0.9344
vn 0.2481 0.4974 0.8313
vn 0.0000 -0.0226 0.9997
vn -0.0245 0.5241 0.8513
vn -0.3561 -0.0145 0.9343
vn -0.2912 0.5000 0.8156
vn -0.6674 0.0087 0.7446
vn -0.5545 0.4230 0.7167
vn -0.8915 0.0585 0.4491
vn -0.7976 0.2749 0.5370
vn -0.9444 0.3259 -0.0426
vn -0.9822 0.0340 0.1848
vn -0.9878 -0.0228 -0.1539
vn -0.9882 -0.1474 -0.0407
vn -0.8160 0.0962 -0.5699
vn -0.8566 -0.2562 -0.4480
vn -0.6032 0.0441 -0.7964
vn -0.6292 -0.2955 -0.7189
vn -0.3215 0.0250 -0.9466
vn -0.3278 -0.3097 -0.8925
vn -0.4249 0.4855 -0.7640
vn -0.0163 0.5349 -0.8447
vn -0.7407 0.3614 -0.5663
vn -0.9245 0.1984 -0.3256
vn -0.9878 0.0376 -0.1510
vn -0.9586 -0.1490 0.2427
vn -0.8684 -0.2372 0.4355
vn -0.6668 -0.3026 0.6811
vn -0.3670 -0.3420 0.8651
vn 0.0000 -0.3559 0.9345
vn 0.3670 -0.3420 0.8651
vn 0.6668 -0.3026 0.6811
vn 0.8684 -0.2372 0.4355
vn 0.9586 -0.1490 0.2427
vn 0.9878 0.0376 -0.1510
vn 0.9245 0.1984 -0.3256
vn 0.7407 0.3614 -0.5663
vn 0.4249 0.4855 -0.7640
vn 0.0000 0.0155 -0.9999
vn 0.3578 0.0082 -0.9338
vn 0.6694 -0.0109 -0.7428
vn 0.8922 -0.0447 -0.4495
vn 0.9741 -0.2229 0.0379
vn 0.9908 0.0434 0.1285
vn 0.8243 -0.0647 0.5624
vn 0.6044 -0.0334 0.7960
vn 0.3205 -0.0178 0.9471
vn 0.0000 -0.0155 0.9999
vn -0.3205 -0.0178 0.9471
vn -0.6044 -0.0334 0.7960
vn -0.8243 -0.0647 0.5624
vn -0.9908 0.0434 0.1285
vn -0.9741 -0.2229 0.0379
vn -0.8922 -0.0447 -0.4495
vn -0.6694 -0.0109 -0.7428
vn -0.3578 0.0082 -0.9338
g Cell_1_Door_Cell_1_Door_Cell_1
usemtl Cell_1
s 1
f 7/1/1 8/2/1 4/3/1 3/4/1
f 7/5/2 5/6/2 6/7/2 8/8/2
f 3/9/3 4/10/3 2/11/3 1/12/3
f 5/13/4 7/14/4 3/15/4 1/16/4
f 1/17/5 2/18/5 6/19/5 5/20/5
f 8/21/6 6/22/6 2/23/6 4/24/6
f 35/25/1 14/26/1 13/27/1 36/28/1
f 33/29/5 12/30/5 11/31/5 34/32/5
f 36/33/7 13/34/8 15/35/8 34/36/7
f 35/37/9 33/38/9 16/39/10 14/40/10
f 51/41/1 22/42/1 21/43/1 52/44/1
f 37/45/5 20/46/5 19/47/5 38/48/5
f 52/49/11 21/50/12 23/51/12 50/52/11
f 51/53/13 49/54/13 24/55/14 22/56/14
f 47/57/1 30/58/1 29/59/1 48/60/1
f 41/61/5 28/62/5 27/63/5 42/64/5
f 48/65/15 29/66/16 31/67/16 46/68/15
f 47/69/17 45/70/17 32/71/18 30/72/18
f 10/73/19 12/74/19 33/38/9 35/37/9
f 9/75/20 36/33/7 34/36/7 11/76/20
f 16/77/5 33/29/5 34/32/5 15/78/5
f 10/79/1 35/25/1 36/28/1 9/80/1
f 18/81/21 20/82/21 37/83/22 39/84/22
f 17/85/23 40/86/24 38/87/24 19/88/23
f 49/89/5 37/45/5 38/48/5 50/90/5
f 18/91/1 39/92/1 40/93/1 17/94/1
f 26/95/25 28/96/25 41/97/26 43/98/26
f 25/99/27 44/100/28 42/101/28 27/102/27
f 45/103/5 41/61/5 42/64/5 46/104/5
f 26/105/1 43/106/1 44/107/1 25/108/1
f 32/109/5 45/103/5 46/104/5 31/110/5
f 43/98/26 41/97/26 45/70/17 47/69/17
f 44/100/28 48/65/15 46/68/15 42/101/28
f 43/106/1 47/57/1 48/60/1 44/107/1
f 24/111/5 49/89/5 50/90/5 23/112/5
f 39/84/22 37/83/22 49/54/13 51/53/13
f 40/86/24 52/49/11 50/52/11 38/87/24
f 39/92/1 51/41/1 52/44/1 40/93/1
f 58/113/4 57/114/4 59/115/4 60/116/4
f 57/117/3 53/118/3 56/119/3 59/120/3
f 53/121/6 54/122/6 55/123/6 56/124/6
f 55/125/5 60/126/5 59/127/5 56/128/5
f 57/129/1 58/130/1 54/131/1 53/132/1
f 54/133/2 58/134/2 60/135/2 55/136/2
f 66/137/4 65/138/4 67/139/4 68/140/4
f 65/141/3 61/142/3 64/143/3 67/144/3
f 61/145/6 62/146/6 63/147/6 64/148/6
f 63/149/5 68/150/5 67/151/5 64/152/5
f 65/153/1 66/154/1 62/155/1 61/156/1
f 62/157/2 66/158/2 68/159/2 63/160/2
f 74/161/6 76/162/6 75/163/6 73/164/6
f 73/165/3 75/166/3 72/167/3 69/168/3
f 69/169/4 72/170/4 71/171/4 70/172/4
f 71/173/5 72/174/5 75/175/5 76/176/5
f 73/177/1 69/178/1 70/179/1 74/180/1
f 70/181/2 71/182/2 76/183/2 74/184/2
f 82/185/6 84/186/6 83/187/6 81/188/6
f 81/189/3 83/190/3 80/191/3 77/192/3
f 77/193/4 80/194/4 79/195/4 78/196/4
f 79/197/5 80/198/5 83/199/5 84/200/5
f 81/201/1 77/202/1 78/203/1 82/204/1
f 78/205/2 79/206/2 84/207/2 82/208/2
f 121/209/29 86/210/30 88/211/31 122/212/32
f 122/212/32 88/211/31 90/213/33 123/214/34
f 123/214/34 90/213/33 92/215/35 124/216/36
f 124/216/36 92/215/35 94/217/37 125/218/38
f 125/218/38 94/217/37 96/219/39 126/220/40
f 126/220/40 96/219/39 98/221/41 127/222/42
f 127/222/42 98/221/41 100/223/43 128/224/44
f 128/224/44 100/223/43 102/225/45 129/226/46
f 129/226/46 102/225/45 104/227/47 130/228/48
f 130/228/48 104/227/47 106/229/49 131/230/50
f 131/230/50 106/229/49 108/231/51 132/232/52
f 132/232/52 108/231/51 110/233/53 133/234/54
f 133/235/54 110/236/53 112/237/55 134/238/56
f 134/238/56 112/237/55 114/239/57 135/240/58
f 135/240/58 114/239/57 116/241/59 136/242/60
f 136/242/60 116/241/59 118/243/61 137/244/62
f 137/244/62 118/243/61 120/245/63 138/246/64
f 138/246/64 120/245/63 86/210/30 121/209/29
f 155/247/65 138/246/64 121/209/29 156/248/66
f 154/249/67 137/244/62 138/246/64 155/247/65
f 153/250/68 136/242/60 137/244/62 154/249/67
f 152/251/69 135/240/58 136/242/60 153/250/68
f 151/252/70 134/238/56 135/240/58 152/251/69
f 150/253/71 133/235/54 134/238/56 151/252/70
f 149/254/72 132/232/52 133/234/54 150/255/71
f 148/256/73 131/230/50 132/232/52 149/254/72
f 147/257/74 130/228/48 131/230/50 148/256/73
f 146/258/75 129/226/46 130/228/48 147/257/74
f 145/259/76 128/224/44 129/226/46 146/258/75
f 144/260/77 127/222/42 128/224/44 145/259/76
f 143/261/78 126/220/40 127/222/42 144/260/77
f 142/262/79 125/218/38 126/220/40 143/261/78
f 141/263/80 124/216/36 125/218/38 142/262/79
f 140/264/81 123/214/34 124/216/36 141/263/80
f 139/265/82 122/212/32 123/214/34 140/264/81
f 85/266/83 156/248/66 139/265/82 87/267/84
f 87/267/84 139/265/82 140/264/81 89/268/85
f 89/268/85 140/264/81 141/263/80 91/269/86
f 91/269/86 141/263/80 142/262/79 93/270/87
f 93/270/87 142/262/79 143/261/78 95/271/88
f 95/271/88 143/261/78 144/260/77 97/272/89
f 97/272/89 144/260/77 145/259/76 99/273/90
f 99/273/90 145/259/76 146/258/75 101/274/91
f 101/274/91 146/258/75 147/257/74 103/275/92
f 103/275/92 147/257/74 148/256/73 105/276/93
f 105/276/93 148/256/73 149/254/72 107/277/94
f 107/277/94 149/254/72 150/255/71 109/278/95
f 109/279/95 150/253/71 151/252/70 111/280/96
f 111/280/96 151/252/70 152/251/69 113/281/97
f 113/281/97 152/251/69 153/250/68 115/282/98
f 115/282/98 153/250/68 154/249/67 117/283/99
f 117/283/99 154/249/67 155/247/65 119/284/100
f 119/284/100 155/247/65 156/248/66 85/266/83
f 156/248/66 121/209/29 122/212/32 139/265/82
