# Blender v3.6.5 OBJ File: 'Cell 1_3.blend'
# www.blender.org
mtllib Column.mtl
o Column
v -0.135749 1.044032 0.135749
v -0.135749 1.044032 -0.135749
v 0.135749 1.044032 -0.135749
v 0.135749 1.044032 0.135749
v -0.126379 0.000000 -0.126379
v -0.126379 0.000000 0.126379
v 0.126379 0.000000 0.126379
v 0.126379 0.000000 -0.126379
v -0.135749 -1.044032 0.135749
v -0.135749 -1.044032 -0.135749
v 0.135749 -1.044032 -0.135749
v 0.135749 -1.044032 0.135749
v -0.160885 1.042762 0.160885
v -0.160885 1.336316 0.160885
v -0.160885 1.336316 -0.160885
v -0.160885 1.042762 -0.160885
v -0.196777 -0.990794 -0.196777
v 0.196777 -0.990794 -0.196777
v 0.196777 -0.990794 0.196777
v -0.196777 -0.990794 0.196777
v -0.196777 -1.129116 -0.196777
v 0.196777 -1.129116 -0.196777
v 0.196777 -1.129116 0.196777
v -0.196777 -1.129116 0.196777
v -0.304904 -1.207069 -0.304904
v -0.304904 -1.207069 0.304904
v -0.304904 -1.129116 -0.304904
v 0.304904 -1.207069 -0.304904
v 0.304904 -1.129116 -0.304904
v 0.304904 -1.207069 0.304904
v 0.304904 -1.129116 0.304904
v -0.304904 -1.129116 0.304904
v -0.144335 -0.087774 -0.144335
v -0.144335 0.165791 -0.144335
v -0.144335 0.165791 0.144335
v -0.144335 -0.087774 0.144335
v 0.144335 0.165791 -0.144335
v 0.144335 -0.087774 -0.144335
v 0.144335 0.165791 0.144335
v 0.144335 -0.087774 0.144335
v 0.160885 1.336316 -0.160885
v 0.160885 1.336316 0.160885
v 0.160885 1.042762 -0.160885
v 0.160885 1.042762 0.160885
v 0.158033 1.278707 -0.103276
v 0.158033 1.278707 0.103276
v 0.158033 1.100371 -0.103276
v 0.158033 1.100371 0.103276
v 1.089755 1.193708 0.103276
v 1.089755 1.193708 -0.103276
v 1.089755 1.372043 0.103276
v 1.089755 1.372043 -0.103276
v 1.401059 1.377178 -0.108412
v 1.401059 1.377178 0.108412
v 1.401059 1.188572 -0.108412
v 1.401059 1.188572 0.108412
v 1.089755 1.188572 0.108412
v 1.089755 1.188572 -0.108412
v 1.089755 1.377178 0.108412
v 1.089755 1.377178 -0.108412
v 0.775137 1.131901 0.103276
v 0.452599 1.100371 0.103276
v 0.673180 1.116136 0.103276
v 0.555123 1.104595 0.103276
v 0.452599 1.278707 0.103276
v 0.775137 1.310236 0.103276
v 0.555123 1.282931 0.103276
v 0.673180 1.294471 0.103276
v 0.452599 1.278707 -0.103276
v 0.775137 1.310236 -0.103276
v 0.555123 1.282931 -0.103276
v 0.673180 1.294471 -0.103276
v 0.775137 1.131901 -0.103276
v 0.452599 1.100371 -0.103276
v 0.673180 1.116136 -0.103276
v 0.555123 1.104595 -0.103276
v 0.097097 0.808038 0.087914
v 0.371114 1.122826 0.087914
v 0.097097 0.808038 -0.087914
v 0.371114 1.122826 -0.087914
v 0.097097 0.534811 0.087914
v 0.613317 1.122826 0.087914
v 0.097097 0.534811 -0.087914
v 0.613317 1.122826 -0.087914
v 0.288907 1.017426 0.080924
v 0.188739 0.902377 0.080939
v 0.188739 0.902377 -0.080938
v 0.288907 1.017426 -0.080924
v 0.297778 0.777168 -0.079098
v 0.400325 0.893988 -0.079091
v 0.297778 0.777168 0.079099
v 0.400325 0.893988 0.079092
v 1.223772 1.069767 0.015383
v 1.232058 1.061482 0.015383
v 1.232058 1.146390 0.015383
v 1.223772 1.138104 0.015383
v 1.232058 1.061482 -0.015383
v 1.223772 1.069767 -0.015383
v 1.223772 1.138104 -0.015383
v 1.232058 1.146390 -0.015383
v 1.257324 1.061482 0.015383
v 1.265609 1.069767 0.015383
v 1.265609 1.138104 0.015383
v 1.257324 1.146390 0.015383
v 1.265609 1.069767 -0.015383
v 1.257324 1.061482 -0.015383
v 1.257324 1.146390 -0.015383
v 1.265609 1.138104 -0.015383
v 1.207723 1.063120 -0.015383
v 1.225410 1.045433 -0.015383
v 1.225410 1.045433 0.015383
v 1.207723 1.063120 0.015383
v 1.207723 1.144752 0.015383
v 1.225410 1.162439 0.015383
v 1.225410 1.162439 -0.015383
v 1.207723 1.144752 -0.015383
v 1.281658 1.063120 0.015383
v 1.263971 1.045433 0.015383
v 1.263971 1.045433 -0.015383
v 1.281658 1.063120 -0.015383
v 1.281658 1.144752 -0.015383
v 1.263971 1.162439 -0.015383
v 1.263971 1.162439 0.015383
v 1.281658 1.144752 0.015383
v 1.209940 1.103936 0.014461
v 1.209940 1.103936 -0.014460
v 1.225027 1.103936 0.014461
v 1.225027 1.103936 -0.014460
v 1.279441 1.103936 0.014461
v 1.279441 1.103936 -0.014460
v 1.264355 1.103936 0.014461
v 1.264355 1.103936 -0.014460
v 1.229308 0.991083 -0.020918
v 1.229308 0.982797 -0.012633
v 1.229308 1.067705 -0.012633
v 1.229308 1.059420 -0.020918
v 1.260074 0.982797 -0.012633
v 1.260074 0.991083 -0.020918
v 1.260074 1.059420 -0.020918
v 1.260074 1.067705 -0.012633
v 1.229308 0.982797 0.012633
v 1.229308 0.991083 0.020919
v 1.229308 1.059420 0.020919
v 1.229308 1.067705 0.012633
v 1.260074 0.991083 0.020919
v 1.260074 0.982797 0.012633
v 1.260074 1.067705 0.012633
v 1.260074 1.059420 0.020919
v 1.260074 0.984435 -0.036967
v 1.260074 0.966748 -0.019281
v 1.229308 0.966748 -0.019281
v 1.229308 0.984435 -0.036967
v 1.229308 1.066068 -0.036967
v 1.229308 1.083755 -0.019281
v 1.260074 1.083755 -0.019281
v 1.260074 1.066068 -0.036967
v 1.229308 0.984435 0.036968
v 1.229308 0.966748 0.019281
v 1.260074 0.966748 0.019281
v 1.260074 0.984435 0.036968
v 1.260074 1.066068 0.036968
v 1.260074 1.083755 0.019281
v 1.229308 1.083755 0.019281
v 1.229308 1.066068 0.036968
v 1.230230 1.025251 -0.034750
v 1.259151 1.025251 -0.034750
v 1.230230 1.025251 -0.019664
v 1.259151 1.025251 -0.019664
v 1.230230 1.025251 0.034751
v 1.259151 1.025251 0.034751
v 1.230230 1.025251 0.019664
v 1.259151 1.025251 0.019664
v 0.258744 -1.129680 0.211570
v 0.258744 -1.120861 0.211570
v 0.284129 -1.129680 0.241757
v 0.284129 -1.120861 0.241757
v 0.270678 -1.129680 0.278835
v 0.270678 -1.120861 0.278835
v 0.231843 -1.129680 0.285725
v 0.231843 -1.120861 0.285725
v 0.206458 -1.129680 0.255537
v 0.206458 -1.120861 0.255537
v 0.219909 -1.129680 0.218460
v 0.219909 -1.120861 0.218460
v -0.258744 -1.129680 0.211570
v -0.258744 -1.120861 0.211570
v -0.284129 -1.129680 0.241757
v -0.284129 -1.120861 0.241757
v -0.270678 -1.129680 0.278835
v -0.270678 -1.120861 0.278835
v -0.231843 -1.129680 0.285725
v -0.231843 -1.120861 0.285725
v -0.206458 -1.129680 0.255537
v -0.206458 -1.120861 0.255537
v -0.219909 -1.129680 0.218460
v -0.219909 -1.120861 0.218460
v 0.258744 -1.129680 -0.211570
v 0.258744 -1.120861 -0.211570
v 0.284129 -1.129680 -0.241757
v 0.284129 -1.120861 -0.241757
v 0.270678 -1.129680 -0.278835
v 0.270678 -1.120861 -0.278835
v 0.231843 -1.129680 -0.285725
v 0.231843 -1.120861 -0.285725
v 0.206458 -1.129680 -0.255537
v 0.206458 -1.120861 -0.255537
v 0.219909 -1.129680 -0.218460
v 0.219909 -1.120861 -0.218460
v -0.258744 -1.129680 -0.211570
v -0.258744 -1.120861 -0.211570
v -0.284129 -1.129680 -0.241757
v -0.284129 -1.120861 -0.241757
v -0.270678 -1.129680 -0.278835
v -0.270678 -1.120861 -0.278835
v -0.231843 -1.129680 -0.285725
v -0.231843 -1.120861 -0.285725
v -0.206458 -1.129680 -0.255537
v -0.206458 -1.120861 -0.255537
v -0.219909 -1.129680 -0.218460
v -0.219909 -1.120861 -0.218460
v 1.227560 1.194855 -0.083463
v 1.261831 1.194855 -0.083463
v 1.227560 1.128364 -0.044967
v 1.261831 1.128364 -0.044967
v 1.227560 1.128364 0.044968
v 1.261831 1.128364 0.044968
v 1.227560 1.195000 0.083463
v 1.261831 1.195000 0.083463
v 1.227560 1.196796 -0.068792
v 1.261831 1.196796 -0.068792
v 1.227560 1.141854 -0.037179
v 1.261831 1.141854 -0.037179
v 1.227560 1.141854 0.037179
v 1.261831 1.141854 0.037179
v 1.227560 1.196942 0.068960
v 1.261831 1.196942 0.068960
vt 0.359677 0.907048
vt 0.363735 0.454779
vt 0.473225 0.454779
vt 0.477283 0.907048
vt 0.354342 0.454779
vt 0.358400 0.907048
vt 0.240794 0.907048
vt 0.244852 0.454779
vt 0.116575 0.454779
vt 0.120634 0.907048
vt 0.003028 0.907048
vt 0.007086 0.454779
vt 0.235459 0.454779
vt 0.239517 0.907048
vt 0.121911 0.907048
vt 0.125969 0.454779
vt 0.359677 0.002510
vt 0.477283 0.002510
vt 0.240794 0.002510
vt 0.358400 0.002510
vt 0.003028 0.002510
vt 0.120634 0.002510
vt 0.121911 0.002510
vt 0.239517 0.002510
vt 0.893144 0.554983
vt 0.893144 0.439250
vt 0.994802 0.439250
vt 0.994802 0.554983
vt 0.893488 0.783833
vt 0.994471 0.783833
vt 0.994471 0.894522
vt 0.893488 0.894522
vt 0.789765 0.691348
vt 0.890748 0.691348
vt 0.890748 0.802037
vt 0.789765 0.802037
vt 0.994064 0.781310
vt 0.893081 0.781310
vt 0.893081 0.670621
vt 0.994064 0.670621
vt 0.700186 0.914367
vt 0.700186 0.803677
vt 0.810875 0.803677
vt 0.810876 0.914367
vt 0.693717 0.998637
vt 0.693717 0.916067
vt 0.776287 0.916067
vt 0.776287 0.998637
vt 0.901196 0.167201
vt 0.952152 0.167261
vt 0.951981 0.312242
vt 0.901025 0.312181
vt 0.899662 0.219284
vt 0.899585 0.270240
vt 0.754605 0.270020
vt 0.754682 0.219064
vt 0.753865 0.217512
vt 0.753915 0.166556
vt 0.898895 0.166697
vt 0.898846 0.217653
vt 0.899583 0.271392
vt 0.899505 0.322348
vt 0.754525 0.322128
vt 0.754603 0.271172
vt 0.719410 0.427287
vt 0.719410 0.320881
vt 0.748645 0.291646
vt 0.748645 0.456522
vt 0.613004 0.320881
vt 0.613004 0.427287
vt 0.583769 0.456522
vt 0.583769 0.291646
vt 0.753952 0.089594
vt 0.754013 0.060877
vt 0.978659 0.061354
vt 0.978598 0.090070
vt 0.754016 0.059725
vt 0.754077 0.031008
vt 0.978722 0.031484
vt 0.978661 0.060201
vt 0.978786 0.001615
vt 0.978725 0.030332
vt 0.754079 0.029856
vt 0.754140 0.001139
vt 0.954604 0.166754
vt 0.983321 0.166828
vt 0.982740 0.391473
vt 0.954023 0.391399
vt 0.615983 0.324115
vt 0.717363 0.324115
vt 0.717363 0.425494
vt 0.615983 0.425494
vt 0.789218 0.575117
vt 0.789218 0.459296
vt 0.890955 0.459296
vt 0.890955 0.575117
vt 0.789461 0.687252
vt 0.672735 0.686934
vt 0.673015 0.584403
vt 0.789741 0.584721
vt 0.890380 0.577520
vt 0.890380 0.690003
vt 0.791576 0.690003
vt 0.791576 0.577520
vt 0.993793 0.995019
vt 0.894491 0.995019
vt 0.894491 0.895716
vt 0.993793 0.895716
vt 0.674011 0.801643
vt 0.674011 0.689842
vt 0.785812 0.689842
vt 0.785812 0.801643
vt 0.893630 0.556537
vt 0.994612 0.556536
vt 0.994612 0.667226
vt 0.893630 0.667226
vt 0.834886 0.456671
vt 0.889972 0.456671
vt 0.891558 0.458257
vt 0.833300 0.458257
vt 0.889972 0.392868
vt 0.891558 0.391282
vt 0.244300 0.993435
vt 0.250531 0.924124
vt 0.374968 0.911095
vt 0.368737 0.980405
vt 0.578162 0.602471
vt 0.479949 0.602471
vt 0.479949 0.450015
vt 0.578162 0.450015
vt 0.578162 0.154301
vt 0.479949 0.154301
vt 0.479949 0.001845
vt 0.578162 0.001845
vt 0.595860 0.723546
vt 0.665057 0.716156
vt 0.654111 0.840794
vt 0.584914 0.848183
vt 0.578162 0.448611
vt 0.479949 0.448611
vt 0.479949 0.308549
vt 0.578162 0.308549
vt 0.003358 0.984129
vt 0.009589 0.914818
vt 0.124073 0.925110
vt 0.117843 0.994421
vt 0.578162 0.896780
vt 0.479949 0.896780
vt 0.479949 0.756718
vt 0.578162 0.756718
vt 0.998095 0.092043
vt 0.998024 0.165641
vt 0.876546 0.165523
vt 0.876618 0.091925
vt 0.778698 0.995232
vt 0.778883 0.916225
vt 0.892319 0.916491
vt 0.892134 0.995499
vt 0.814064 0.803090
vt 0.891033 0.803175
vt 0.890912 0.913684
vt 0.813942 0.913599
vt 0.834886 0.392868
vt 0.833300 0.391282
vt 0.679343 0.459202
vt 0.786680 0.459202
vt 0.786680 0.582598
vt 0.679343 0.582598
vt 0.204123 0.996000
vt 0.210354 0.926689
vt 0.157837 0.996361
vt 0.164067 0.927050
vt 0.578162 0.651526
vt 0.479949 0.651526
vt 0.578162 0.707928
vt 0.479949 0.707928
vt 0.578162 0.203357
vt 0.479949 0.203357
vt 0.578162 0.259759
vt 0.479949 0.259759
vt 0.597752 0.683332
vt 0.666949 0.675942
vt 0.597338 0.637046
vt 0.666535 0.629656
vt 0.594729 0.597090
vt 0.663926 0.589700
vt 0.582523 0.482793
vt 0.651720 0.475404
vt 0.875465 0.091924
vt 0.875394 0.165522
vt 0.753916 0.165404
vt 0.753987 0.091806
vt 0.714143 0.003399
vt 0.710857 0.117700
vt 0.651079 0.125746
vt 0.648636 0.077965
vt 0.377232 0.912807
vt 0.498626 0.916080
vt 0.498690 0.977109
vt 0.377304 0.980638
vt 0.790712 0.324643
vt 0.841450 0.327343
vt 0.841439 0.389793
vt 0.790699 0.392474
vt 0.646297 0.077965
vt 0.643853 0.125746
vt 0.584075 0.117700
vt 0.580790 0.003399
vt 0.558593 0.916019
vt 0.679194 0.912489
vt 0.679265 0.980320
vt 0.558657 0.977044
vt 0.644083 0.181160
vt 0.646924 0.229699
vt 0.580790 0.287728
vt 0.584080 0.174167
vt 0.900300 0.327359
vt 0.951867 0.324672
vt 0.951854 0.392504
vt 0.900288 0.389798
vt 0.710852 0.174167
vt 0.650849 0.181160
vt 0.714143 0.287728
vt 0.648009 0.229699
vt 0.593020 0.864390
vt 0.581012 0.864728
vt 0.580600 0.850106
vt 0.592608 0.849768
vt 0.501504 0.997066
vt 0.483154 0.997454
vt 0.483174 0.983643
vt 0.501522 0.984084
vt 0.471926 0.997438
vt 0.454616 0.997414
vt 0.454636 0.983603
vt 0.471946 0.983628
vt 0.425059 0.983975
vt 0.443408 0.983587
vt 0.443389 0.997398
vt 0.425040 0.996958
vt 0.655596 0.848312
vt 0.656008 0.862934
vt 0.650438 0.863091
vt 0.650027 0.848468
vt 0.395463 0.997330
vt 0.395482 0.983520
vt 0.406710 0.983536
vt 0.406691 0.997346
vt 0.531099 0.983711
vt 0.531080 0.997522
vt 0.519852 0.997506
vt 0.519871 0.983695
vt 0.378153 0.997306
vt 0.378173 0.983495
vt 0.744160 0.106442
vt 0.739832 0.102114
vt 0.743305 0.093732
vt 0.752542 0.102970
vt 0.726662 0.039593
vt 0.722335 0.043921
vt 0.713952 0.040449
vt 0.723190 0.031211
vt 0.722335 0.079624
vt 0.726662 0.083951
vt 0.723190 0.092333
vt 0.713953 0.083096
vt 0.739833 0.146472
vt 0.744161 0.142146
vt 0.752543 0.145618
vt 0.743304 0.154855
vt 0.744186 0.043921
vt 0.739858 0.039593
vt 0.743330 0.031211
vt 0.752568 0.040449
vt 0.726637 0.102114
vt 0.722309 0.106442
vt 0.713927 0.102970
vt 0.723164 0.093732
vt 0.722309 0.142145
vt 0.726637 0.146472
vt 0.723164 0.154854
vt 0.713927 0.145617
vt 0.739859 0.083951
vt 0.744187 0.079625
vt 0.752569 0.083097
vt 0.743330 0.092334
vt 0.722990 0.061773
vt 0.715110 0.061773
vt 0.743505 0.124294
vt 0.751385 0.124294
vt 0.743531 0.061773
vt 0.751411 0.061773
vt 0.722964 0.124294
vt 0.715085 0.124294
vt 0.598589 0.864233
vt 0.598178 0.849611
vt 0.614827 0.863338
vt 0.614440 0.849592
vt 0.636660 0.863162
vt 0.631090 0.863318
vt 0.630679 0.848696
vt 0.636248 0.848539
vt 0.648668 0.862824
vt 0.648256 0.848201
vt 0.688097 0.847397
vt 0.693666 0.847240
vt 0.694078 0.861862
vt 0.688509 0.862019
vt 0.671859 0.848293
vt 0.672246 0.862038
vt 0.625757 0.897752
vt 0.637765 0.897413
vt 0.638177 0.912036
vt 0.626168 0.912374
vt 0.562578 0.997202
vt 0.544229 0.997590
vt 0.544248 0.983780
vt 0.562596 0.984220
vt 0.685927 0.997790
vt 0.668617 0.997766
vt 0.668637 0.983955
vt 0.685947 0.983980
vt 0.639060 0.984328
vt 0.657409 0.983939
vt 0.657390 0.997750
vt 0.639041 0.997310
vt 0.643334 0.897257
vt 0.643746 0.911879
vt 0.609464 0.997682
vt 0.609483 0.983872
vt 0.620711 0.983888
vt 0.620692 0.997698
vt 0.592174 0.983847
vt 0.592154 0.997658
vt 0.580926 0.997642
vt 0.580946 0.983831
vt 0.533001 0.997574
vt 0.533020 0.983764
vt 0.744477 0.168977
vt 0.740150 0.164649
vt 0.743622 0.156267
vt 0.752860 0.165505
vt 0.727355 0.227502
vt 0.723028 0.231829
vt 0.714645 0.228358
vt 0.723883 0.219120
vt 0.723027 0.267533
vt 0.727355 0.271860
vt 0.723882 0.280242
vt 0.714645 0.271004
vt 0.740150 0.209007
vt 0.744479 0.204681
vt 0.752860 0.208153
vt 0.743622 0.217390
vt 0.744878 0.231830
vt 0.740551 0.227502
vt 0.744023 0.219120
vt 0.753261 0.228358
vt 0.726954 0.164649
vt 0.722627 0.168977
vt 0.714244 0.165505
vt 0.723482 0.156267
vt 0.722627 0.204680
vt 0.726954 0.209007
vt 0.723482 0.217389
vt 0.714245 0.208152
vt 0.740551 0.271860
vt 0.744879 0.267533
vt 0.753261 0.271006
vt 0.744023 0.280243
vt 0.723682 0.249682
vt 0.715803 0.249682
vt 0.743823 0.186829
vt 0.751703 0.186829
vt 0.744223 0.249682
vt 0.752103 0.249682
vt 0.723282 0.186829
vt 0.715402 0.186829
vt 0.620187 0.897908
vt 0.620599 0.912531
vt 0.603949 0.898804
vt 0.604336 0.912550
vt 0.582117 0.898980
vt 0.587686 0.898823
vt 0.588098 0.913446
vt 0.582529 0.913603
vt 0.681404 0.896185
vt 0.693413 0.895847
vt 0.693824 0.910469
vt 0.681816 0.910807
vt 0.675835 0.896342
vt 0.676247 0.910964
vt 0.659597 0.897238
vt 0.659984 0.910983
vt 0.984676 0.193002
vt 0.990512 0.193002
vt 0.990512 0.219105
vt 0.984676 0.219105
vt 0.990512 0.245209
vt 0.984676 0.245209
vt 0.990512 0.271312
vt 0.984676 0.271312
vt 0.990512 0.297415
vt 0.984676 0.297415
vt 0.768239 0.396041
vt 0.802785 0.394497
vt 0.821395 0.423643
vt 0.805459 0.454332
vt 0.990512 0.323518
vt 0.984676 0.323518
vt 0.984676 0.166899
vt 0.990512 0.166899
vt 0.752303 0.426731
vt 0.770913 0.455876
vt 0.992678 0.271312
vt 0.992678 0.245209
vt 0.998515 0.245209
vt 0.998515 0.271312
vt 0.992678 0.219105
vt 0.998515 0.219105
vt 0.992678 0.193002
vt 0.998515 0.193002
vt 0.992678 0.166899
vt 0.998515 0.166899
vt 0.863327 0.396967
vt 0.863177 0.450241
vt 0.840146 0.436858
vt 0.840221 0.410221
vt 0.992678 0.323518
vt 0.992678 0.297415
vt 0.998515 0.297415
vt 0.998515 0.323518
vt 0.886357 0.410351
vt 0.886282 0.436988
vt 0.984676 0.193002
vt 0.984676 0.219105
vt 0.990512 0.219105
vt 0.990512 0.193002
vt 0.984676 0.245209
vt 0.990512 0.245209
vt 0.984676 0.271312
vt 0.990512 0.271312
vt 0.984676 0.297415
vt 0.990512 0.297415
vt 0.768239 0.396041
vt 0.805459 0.454332
vt 0.821395 0.423643
vt 0.802785 0.394497
vt 0.984676 0.323518
vt 0.990512 0.323518
vt 0.984676 0.166899
vt 0.990512 0.166899
vt 0.752303 0.426731
vt 0.770913 0.455876
vt 0.992678 0.271312
vt 0.998515 0.271312
vt 0.998515 0.245209
vt 0.992678 0.245209
vt 0.998515 0.219105
vt 0.992678 0.219105
vt 0.998515 0.193002
vt 0.992678 0.193002
vt 0.998515 0.166899
vt 0.992678 0.166899
vt 0.863327 0.396967
vt 0.840221 0.410221
vt 0.840146 0.436858
vt 0.863177 0.450241
vt 0.992678 0.323518
vt 0.998515 0.323518
vt 0.998515 0.297415
vt 0.992678 0.297415
vt 0.886357 0.410351
vt 0.886282 0.436988
vt 0.582099 0.881696
vt 0.581677 0.866690
vt 0.615318 0.865743
vt 0.615741 0.880749
vt 0.654698 0.864634
vt 0.655120 0.879640
vt 0.688394 0.863686
vt 0.688817 0.878692
vt 0.582176 0.882798
vt 0.609932 0.882016
vt 0.610354 0.897022
vt 0.582599 0.897804
vt 0.642491 0.881100
vt 0.642913 0.896106
vt 0.670338 0.880316
vt 0.670761 0.895322
vt 0.602446 0.288666
vt 0.622943 0.252614
vt 0.627204 0.259863
vt 0.610373 0.289652
vt 0.669276 0.001444
vt 0.687380 0.032933
vt 0.680441 0.033830
vt 0.665574 0.007811
vt 0.671486 0.252234
vt 0.667339 0.259548
vt 0.626758 0.001316
vt 0.630421 0.007704
vt 0.692546 0.288038
vt 0.684727 0.289147
vt 0.608464 0.032763
vt 0.615317 0.033702
vn 1.0000 -0.0090 0.0000
vn 1.0000 -0.0000 0.0000
vn 0.0000 -0.0000 1.0000
vn 0.0000 -0.0090 1.0000
vn 0.0000 -0.0000 -1.0000
vn 0.0000 -0.0090 -1.0000
vn -1.0000 -0.0000 0.0000
vn -1.0000 -0.0090 0.0000
vn 1.0000 0.0090 0.0000
vn 0.0000 0.0090 1.0000
vn 0.0000 0.0090 -1.0000
vn -1.0000 0.0090 0.0000
vn 0.0000 1.0000 0.0000
vn 0.0000 -1.0000 0.0000
vn 0.1831 -0.9831 -0.0000
vn 0.1928 -0.9812 0.0000
vn -0.1831 0.9831 0.0000
vn -0.1928 0.9812 0.0000
vn -0.0106 0.9999 0.0000
vn 0.0106 -0.9999 -0.0000
vn 0.1232 -0.9924 0.0000
vn 0.0713 -0.9975 0.0000
vn -0.1232 0.9924 0.0000
vn -0.0713 0.9975 0.0000
vn 0.0451 0.0077 0.9990
vn 0.0305 0.0017 0.9995
vn 0.0304 0.0017 0.9995
vn 0.7702 -0.6378 -0.0000
vn 0.7610 -0.6487 -0.0000
vn -0.7173 0.6968 0.0000
vn -0.7370 0.6759 0.0000
vn 0.0451 0.0077 -0.9990
vn 0.0305 0.0017 -0.9995
vn 0.7418 -0.6707 -0.0000
vn 0.7320 -0.6813 -0.0000
vn -0.0019 -0.0268 -0.9996
vn -0.0087 -0.0396 -0.9992
vn -0.7708 0.6370 0.0000
vn -0.7885 0.6150 0.0000
vn -0.0019 -0.0268 0.9996
vn -0.0087 -0.0396 0.9992
vn -0.2397 0.9708 -0.0000
vn 0.2397 0.9708 0.0000
vn 0.9651 0.2618 0.0000
vn 0.3000 0.9539 0.0000
vn -0.3000 0.9539 0.0000
vn -0.9651 0.2618 -0.0000
vn 0.9858 0.1682 0.0000
vn -0.3000 -0.9539 0.0000
vn -0.9651 -0.2618 -0.0000
vn 0.3000 -0.9539 0.0000
vn 0.9651 -0.2618 0.0000
vn -0.0027 0.0125 -0.9999
vn -0.0027 0.0125 0.9999
vn -0.0027 -0.0125 0.9999
vn -0.0026 -0.0121 0.9999
vn -0.0027 -0.0125 -0.9999
vn 0.0027 0.0125 0.9999
vn 0.0027 0.0125 -0.9999
vn 0.0027 -0.0125 -0.9999
vn 0.0027 -0.0125 0.9999
vn 0.0026 -0.0121 0.9999
vn -0.0053 -0.0000 1.0000
vn -0.0053 -0.0000 -1.0000
vn 0.0053 -0.0000 1.0000
vn 0.0053 -0.0000 -1.0000
vn -0.9858 0.1682 0.0000
vn -0.2397 -0.9708 0.0000
vn -0.9858 -0.1682 -0.0000
vn 0.2397 -0.9708 -0.0000
vn 0.9858 -0.1682 0.0000
vn 0.0000 0.9708 -0.2397
vn -0.0000 0.9708 0.2397
vn -0.0000 0.2618 0.9651
vn 0.0000 0.9539 0.3000
vn 0.0000 0.9539 -0.3000
vn 0.0000 0.2618 -0.9651
vn -0.0000 0.1682 0.9858
vn 0.0000 -0.9539 -0.3000
vn 0.0000 -0.2618 -0.9651
vn 0.0000 -0.9539 0.3000
vn -0.0000 -0.2618 0.9651
vn 0.9999 0.0122 -0.0026
vn 0.9999 0.0126 -0.0027
vn -0.9999 0.0122 -0.0026
vn -0.9999 0.0126 -0.0027
vn -0.9999 -0.0122 -0.0026
vn -0.9999 -0.0126 -0.0027
vn 0.9999 -0.0122 -0.0026
vn 0.9999 -0.0126 -0.0027
vn -0.9999 0.0122 0.0026
vn -0.9999 0.0126 0.0027
vn 0.9999 0.0122 0.0026
vn 0.9999 0.0126 0.0027
vn 0.9999 -0.0122 0.0026
vn 0.9999 -0.0126 0.0027
vn -0.9999 -0.0122 0.0026
vn -0.9999 -0.0126 0.0027
vn -1.0000 0.0000 -0.0053
vn 1.0000 0.0000 -0.0053
vn -1.0000 -0.0000 0.0053
vn 1.0000 0.0000 0.0053
vn 0.0000 0.1682 -0.9858
vn 0.0000 -0.9708 -0.2397
vn -0.0000 -0.1682 -0.9858
vn -0.0001 -0.9708 -0.2397
vn 0.0001 -0.9708 0.2397
vn -0.0000 -0.9708 0.2397
vn -0.0000 -0.1682 0.9858
vn 0.3410 0.0000 -0.9401
vn 0.9846 0.0000 -0.1747
vn 0.6436 0.0000 0.7654
vn -0.3410 0.0000 0.9401
vn -0.9846 0.0000 0.1747
vn -0.6436 0.0000 -0.7654
vn -0.3410 0.0000 -0.9401
vn -0.9846 0.0000 -0.1747
vn -0.6436 0.0000 0.7654
vn 0.3410 0.0000 0.9401
vn 0.9846 0.0000 0.1747
vn 0.6436 0.0000 -0.7654
vn 0.0000 -0.5010 -0.8654
vn 0.0000 -0.8880 -0.4597
vn -0.0000 -0.8876 0.4605
vn 0.0000 -0.5002 0.8659
vn 0.0000 0.4987 0.8668
vn -0.0000 0.8878 0.4603
vn -0.0000 0.8876 -0.4607
vn -0.0000 0.4997 -0.8662
g Column_Column_Column
usemtl Column
s 1
f 4/1/1 7/2/2 8/3/2 3/4/1
f 7/5/3 4/6/4 1/7/4 6/8/3
f 5/9/5 2/10/6 3/11/6 8/12/5
f 6/13/7 1/14/8 2/15/8 5/16/7
f 12/17/9 11/18/9 8/3/2 7/2/2
f 7/5/3 6/8/3 9/19/10 12/20/10
f 5/9/5 8/12/5 11/21/11 10/22/11
f 6/13/7 5/16/7 10/23/12 9/24/12
f 35/25/7 34/26/7 33/27/7 36/28/7
f 13/29/7 14/30/7 15/31/7 16/32/7
f 16/33/5 15/34/5 41/35/5 43/36/5
f 44/37/3 42/38/3 14/39/3 13/40/3
f 14/41/13 42/42/13 41/43/13 15/44/13
f 44/45/14 13/46/14 16/47/14 43/48/14
f 24/49/7 20/50/7 17/51/7 21/52/7
f 21/53/5 17/54/5 18/55/5 22/56/5
f 22/57/2 18/58/2 19/59/2 23/60/2
f 23/61/3 19/62/3 20/63/3 24/64/3
f 22/65/13 23/66/13 31/67/13 29/68/13
f 24/69/13 21/70/13 27/71/13 32/72/13
f 30/73/3 31/74/3 32/75/3 26/76/3
f 28/77/2 29/78/2 31/79/2 30/80/2
f 25/81/5 27/82/5 29/83/5 28/84/5
f 26/85/7 32/86/7 27/87/7 25/88/7
f 21/70/13 22/65/13 29/68/13 27/71/13
f 20/89/13 19/90/13 18/91/13 17/92/13
f 23/66/13 24/69/13 32/72/13 31/67/13
f 34/93/5 37/94/5 38/95/5 33/96/5
f 37/97/2 39/98/2 40/99/2 38/100/2
f 39/101/3 35/102/3 36/103/3 40/104/3
f 37/105/13 34/106/13 35/107/13 39/108/13
f 36/109/14 33/110/14 38/111/14 40/112/14
f 42/113/2 44/114/2 43/115/2 41/116/2
f 50/117/7 52/118/7 60/119/7 58/120/7
f 52/118/7 51/121/7 59/122/7 60/119/7
f 73/123/5 70/124/5 52/125/5 50/126/5
f 61/127/15 73/128/15 50/129/16 49/130/16
f 70/131/17 66/132/17 51/133/18 52/134/18
f 66/135/3 61/136/3 49/137/3 51/138/3
f 45/139/13 46/140/13 65/141/19 69/142/19
f 47/143/5 45/144/5 69/145/5 74/146/5
f 48/147/14 47/148/14 74/149/20 62/150/20
f 59/151/3 57/152/3 56/153/3 54/154/3
f 60/155/13 59/156/13 54/157/13 53/158/13
f 57/159/14 58/160/14 55/161/14 56/162/14
f 51/121/7 49/163/7 57/164/7 59/122/7
f 54/165/2 56/166/2 55/167/2 53/168/2
f 49/163/7 50/117/7 58/120/7 57/164/7
f 70/124/5 73/123/5 75/169/5 72/170/5
f 72/170/5 75/169/5 76/171/5 71/172/5
f 71/172/5 76/171/5 74/146/5 69/145/5
f 73/128/15 61/127/15 63/173/21 75/174/21
f 75/174/21 63/173/21 64/175/22 76/176/22
f 76/176/22 64/175/22 62/150/20 74/149/20
f 66/132/17 70/131/17 72/177/23 68/178/23
f 68/178/23 72/177/23 71/179/24 67/180/24
f 67/180/24 71/179/24 69/142/19 65/141/19
f 61/136/3 66/135/3 68/181/3 63/182/3
f 63/182/3 68/181/3 67/183/3 64/184/3
f 64/184/3 67/183/3 65/185/3 62/186/3
f 46/187/3 48/188/3 62/186/3 65/185/3
f 58/189/5 60/190/5 53/191/5 55/192/5
f 81/193/25 91/194/26 86/195/27 77/196/25
f 83/197/28 89/198/29 91/199/29 81/200/28
f 77/201/30 86/202/31 87/203/31 79/204/30
f 79/205/32 87/206/33 89/207/33 83/208/32
f 90/209/34 84/210/35 82/211/35 92/212/34
f 88/213/36 80/214/37 84/215/37 90/216/36
f 85/217/38 78/218/39 80/219/39 88/220/38
f 92/221/40 85/222/40 86/195/27 91/194/26
f 90/209/34 92/212/34 91/199/29 89/198/29
f 88/213/36 90/216/36 89/207/33 87/206/33
f 85/217/38 88/220/38 87/203/31 86/202/31
f 92/221/40 82/223/41 78/224/41 85/222/40
f 106/225/42 97/226/43 94/227/43 101/228/42
f 130/229/2 121/230/44 124/231/44 129/232/2
f 122/233/45 115/234/46 114/235/46 123/236/45
f 125/237/7 113/238/47 116/239/47 126/240/7
f 98/241/48 93/242/48 94/243/43 97/244/43
f 110/245/49 111/246/49 112/247/50 109/248/50
f 114/235/46 115/234/46 116/239/47 113/238/47
f 118/249/51 119/250/51 120/251/52 117/252/52
f 122/233/45 123/236/45 124/231/44 121/230/44
f 110/245/49 119/253/51 118/254/51 111/246/49
f 98/255/53 97/256/5 110/257/5 109/258/53
f 94/259/3 93/260/54 112/261/54 111/262/3
f 96/263/55 95/264/3 114/265/3 113/266/56
f 100/267/5 99/268/57 116/269/57 115/270/5
f 102/271/58 101/272/3 118/273/3 117/274/58
f 106/275/5 105/276/59 120/277/59 119/278/5
f 108/279/60 107/280/5 122/281/5 121/282/60
f 104/283/3 103/284/61 124/285/62 123/286/3
f 97/256/5 106/275/5 119/278/5 110/257/5
f 101/272/3 94/259/3 111/262/3 118/273/3
f 127/287/63 96/263/55 113/266/56 125/288/63
f 128/289/64 98/255/53 109/258/53 126/290/64
f 131/291/65 102/271/58 117/274/58 129/292/65
f 95/264/3 104/283/3 123/286/3 114/265/3
f 107/280/5 100/267/5 115/270/5 122/281/5
f 132/293/66 108/279/60 121/282/60 130/294/66
f 105/295/67 106/225/42 101/228/42 102/296/67
f 132/297/7 105/295/67 102/296/67 131/298/7
f 107/299/68 108/300/69 103/301/69 104/302/68
f 100/303/70 107/299/68 104/302/68 95/304/70
f 99/305/71 100/306/70 95/307/70 96/308/71
f 128/309/2 99/305/71 96/308/71 127/310/2
f 98/241/48 128/309/2 127/310/2 93/242/48
f 99/268/57 128/289/64 126/290/64 116/269/57
f 93/260/54 127/287/63 125/288/63 112/261/54
f 112/247/50 125/237/7 126/240/7 109/248/50
f 108/300/69 132/297/7 131/298/7 103/301/69
f 105/276/59 132/293/66 130/294/66 120/277/59
f 103/284/61 131/291/65 129/292/65 124/285/62
f 120/251/52 130/229/2 129/232/2 117/252/52
f 146/311/72 137/312/73 134/313/73 141/314/72
f 170/315/3 161/316/74 164/317/74 169/318/3
f 162/319/75 155/320/76 154/321/76 163/322/75
f 165/323/5 153/324/77 156/325/77 166/326/5
f 138/327/78 133/328/78 134/313/73 137/312/73
f 150/329/79 151/330/79 152/331/80 149/332/80
f 154/321/76 155/320/76 156/325/77 153/324/77
f 158/333/81 159/334/81 160/335/82 157/336/82
f 162/337/75 163/338/75 164/317/74 161/316/74
f 150/329/79 159/334/81 158/333/81 151/330/79
f 138/339/83 137/340/2 150/341/2 149/342/84
f 134/343/7 133/344/85 152/345/86 151/346/7
f 136/347/87 135/348/7 154/349/7 153/350/88
f 140/351/2 139/352/89 156/353/90 155/354/2
f 142/355/91 141/356/7 158/357/7 157/358/92
f 146/359/2 145/360/93 160/361/94 159/362/2
f 148/363/95 147/364/2 162/365/2 161/366/96
f 144/367/7 143/368/97 164/369/98 163/370/7
f 137/340/2 146/359/2 159/362/2 150/341/2
f 141/356/7 134/343/7 151/346/7 158/357/7
f 167/371/99 136/347/87 153/350/88 165/372/99
f 168/373/100 138/339/83 149/342/84 166/374/100
f 171/375/101 142/355/91 157/358/92 169/376/101
f 135/348/7 144/367/7 163/370/7 154/349/7
f 147/364/2 140/351/2 155/354/2 162/365/2
f 172/377/102 148/363/95 161/366/96 170/378/102
f 145/379/103 146/311/72 141/314/72 142/380/103
f 172/381/5 145/379/103 142/380/103 171/382/5
f 147/383/104 148/384/105 143/385/105 144/386/106
f 140/387/107 147/388/104 144/389/106 135/390/108
f 139/391/109 140/387/107 135/390/108 136/392/109
f 168/393/3 139/391/109 136/392/109 167/394/3
f 138/327/78 168/393/3 167/394/3 133/328/78
f 139/352/89 168/373/100 166/374/100 156/353/90
f 133/344/85 167/371/99 165/372/99 152/345/86
f 152/331/80 165/323/5 166/326/5 149/332/80
f 148/384/105 172/381/5 171/382/5 143/385/105
f 145/360/93 172/377/102 170/378/102 160/361/94
f 143/368/97 171/375/101 169/376/101 164/369/98
f 160/335/82 170/315/3 169/318/3 157/336/82
f 173/395/110 174/396/110 176/397/111 175/398/111
f 175/398/111 176/397/111 178/399/112 177/400/112
f 177/400/112 178/399/112 180/401/113 179/402/113
f 179/402/113 180/401/113 182/403/114 181/404/114
f 174/405/13 184/406/13 182/407/13 180/408/13
f 181/404/114 182/403/114 184/409/115 183/410/115
f 183/411/115 184/412/115 174/396/110 173/395/110
f 176/413/13 174/405/13 180/408/13 178/414/13
f 185/415/116 187/416/117 188/417/117 186/418/116
f 187/416/117 189/419/118 190/420/118 188/417/117
f 189/419/118 191/421/119 192/422/119 190/420/118
f 191/421/119 193/423/120 194/424/120 192/422/119
f 186/425/13 192/426/13 194/427/13 196/428/13
f 193/429/120 195/430/121 196/431/121 194/432/120
f 195/430/121 185/415/116 186/418/116 196/431/121
f 188/433/13 190/434/13 192/426/13 186/425/13
f 197/435/119 199/436/120 200/437/120 198/438/119
f 199/436/120 201/439/121 202/440/121 200/437/120
f 201/439/121 203/441/116 204/442/116 202/440/121
f 203/441/116 205/443/117 206/444/117 204/442/116
f 198/445/13 204/446/13 206/447/13 208/448/13
f 205/443/117 207/449/118 208/450/118 206/444/117
f 207/451/118 197/435/119 198/438/119 208/452/118
f 200/453/13 202/454/13 204/446/13 198/445/13
f 209/455/113 210/456/113 212/457/114 211/458/114
f 211/458/114 212/457/114 214/459/115 213/460/115
f 213/460/115 214/459/115 216/461/110 215/462/110
f 215/462/110 216/461/110 218/463/111 217/464/111
f 210/465/13 220/466/13 218/467/13 216/468/13
f 217/469/111 218/470/111 220/471/112 219/472/112
f 219/472/112 220/471/112 210/456/113 209/455/113
f 212/473/13 210/465/13 216/468/13 214/474/13
f 221/475/122 222/476/122 224/477/123 223/478/123
f 223/478/123 224/477/123 226/479/124 225/480/124
f 225/480/124 226/479/124 228/481/125 227/482/125
f 229/483/126 231/484/127 232/485/127 230/486/126
f 231/484/127 233/487/128 234/488/128 232/485/127
f 233/487/128 235/489/129 236/490/129 234/488/128
f 221/491/7 223/492/7 231/493/7 229/494/7
f 224/495/2 222/496/2 230/497/2 232/498/2
f 223/492/7 225/499/7 233/500/7 231/493/7
f 226/501/2 224/495/2 232/498/2 234/502/2
f 225/499/7 227/503/7 235/504/7 233/500/7
f 228/505/2 226/501/2 234/502/2 236/506/2
