{
  "accessors": [
    {
      "bufferView": 2,
      "componentType": 5126,
      "count": 218,
      "max": [
        0.23792092502117157,
        0.21633142232894897,
        0.11404848843812943
      ],
      "min": [
        -0.2642620801925659,
        -8.973479270935059e-05,
        -0.05446385219693184
      ],
      "type": "VEC3"
    },
    {
      "bufferView": 2,
      "byteOffset": 2616,
      "componentType": 5126,
      "count": 218,
      "type": "VEC3"
    },
    {
      "bufferView": 3,
      "componentType": 5126,
      "count": 218,
      "type": "VEC4"
    },
    {
      "bufferView": 1,
      "componentType": 5126,
      "count": 218,
      "type": "VEC2"
    },
    {
      "bufferView": 1,
      "byteOffset": 1744,
      "componentType": 5126,
      "count": 218,
      "type": "VEC2"
    },
    {
      "bufferView": 1,
      "byteOffset": 3488,
      "componentType": 5126,
      "count": 218,
      "type": "VEC2"
    },
    {
      "bufferView": 0,
      "componentType": 5125,
      "count": 570,
      "type": "SCALAR"
    },
    {
      "bufferView": 2,
      "byteOffset": 5232,
      "componentType": 5126,
      "count": 180,
      "max": [
        0.06817004084587097,
        0.24561139941215515,
        0.06850368529558182
      ],
      "min": [
        -0.03384055197238922,
        0.0,
        -0.03932170942425728
      ],
      "type": "VEC3"
    },
    {
      "bufferView": 2,
      "byteOffset": 7392,
      "componentType": 5126,
      "count": 180,
      "type": "VEC3"
    },
    {
      "bufferView": 3,
      "byteOffset": 3488,
      "componentType": 5126,
      "count": 180,
      "type": "VEC4"
    },
    {
      "bufferView": 1,
      "byteOffset": 5232,
      "componentType": 5126,
      "count": 180,
      "type": "VEC2"
    },
    {
      "bufferView": 1,
      "byteOffset": 6672,
      "componentType": 5126,
      "count": 180,
      "type": "VEC2"
    },
    {
      "bufferView": 1,
      "byteOffset": 8112,
      "componentType": 5126,
      "count": 180,
      "type": "VEC2"
    },
    {
      "bufferView": 0,
      "byteOffset": 2280,
      "componentType": 5125,
      "count": 474,
      "type": "SCALAR"
    },
    {
      "bufferView": 2,
      "byteOffset": 9552,
      "componentType": 5126,
      "count": 159,
      "max": [
        0.04506947100162506,
        0.3132617771625519,
        0.045069459825754166
      ],
      "min": [
        -0.04506935179233551,
        0.0,
        -0.04506946727633476
      ],
      "type": "VEC3"
    },
    {
      "bufferView": 2,
      "byteOffset": 11460,
      "componentType": 5126,
      "count": 159,
      "type": "VEC3"
    },
    {
      "bufferView": 3,
      "byteOffset": 6368,
      "componentType": 5126,
      "count": 159,
      "type": "VEC4"
    },
    {
      "bufferView": 1,
      "byteOffset": 9552,
      "componentType": 5126,
      "count": 159,
      "type": "VEC2"
    },
    {
      "bufferView": 1,
      "byteOffset": 10824,
      "componentType": 5126,
      "count": 159,
      "type": "VEC2"
    },
    {
      "bufferView": 1,
      "byteOffset": 12096,
      "componentType": 5126,
      "count": 159,
      "type": "VEC2"
    },
    {
      "bufferView": 0,
      "byteOffset": 4176,
      "componentType": 5125,
      "count": 474,
      "type": "SCALAR"
    }
  ],
  "asset": {
    "generator": "fab-model-conversion",
    "version": "2.0"
  },
  "bufferViews": [
    {
      "buffer": 0,
      "byteLength": 6072,
      "target": 34963
    },
    {
      "buffer": 0,
      "byteLength": 13368,
      "byteOffset": 6072,
      "byteStride": 8,
      "target": 34962
    },
    {
      "buffer": 0,
      "byteLength": 13368,
      "byteOffset": 19440,
      "byteStride": 12,
      "target": 34962
    },
    {
      "buffer": 0,
      "byteLength": 8912,
      "byteOffset": 32808,
      "byteStride": 16,
      "target": 34962
    }
  ],
  "buffers": [
    {
      "byteLength": 41720,
      "uri": "scene.bin"
    }
  ],
  "extensionsUsed": [
    "KHR_materials_specular"
  ],
  "images": [
    {
      "uri": "textures/Plastic_Bottles_baseColor.png"
    },
    {
      "uri": "textures/Plastic_Bottles_metallicRoughness.png"
    },
    {
      "uri": "textures/Plastic_Bottles_normal.png"
    }
  ],
  "materials": [
    {
      "doubleSided": true,
      "extensions": {
        "KHR_materials_specular": {
          "specularColorFactor": [
            1.0,
            1.0,
            1.0
          ],
          "specularFactor": 0.19432774490787286
        }
      },
      "name": "Plastic_Bottles",
      "normalTexture": {
        "index": 2
      },
      "occlusionTexture": {
        "index": 1
      },
      "pbrMetallicRoughness": {
        "baseColorTexture": {
          "index": 0
        },
        "metallicRoughnessTexture": {
          "index": 1
        },
        "roughnessFactor": 0.5271022681926714
      }
    }
  ],
  "meshes": [
    {
      "name": "Plastic_Bottle_03_GEO_Plastic_Bottles_0",
      "primitives": [
        {
          "attributes": {
            "NORMAL": 1,
            "POSITION": 0,
            "TANGENT": 2,
            "TEXCOORD_0": 3,
            "TEXCOORD_1": 4,
            "TEXCOORD_2": 5
          },
          "indices": 6,
          "material": 0,
          "mode": 4
        }
      ]
    },
    {
      "name": "Plastic_Bottle_02_GEO_Plastic_Bottles_0",
      "primitives": [
        {
          "attributes": {
            "NORMAL": 8,
            "POSITION": 7,
            "TANGENT": 9,
            "TEXCOORD_0": 10,
            "TEXCOORD_1": 11,
            "TEXCOORD_2": 12
          },
          "indices": 13,
          "material": 0,
          "mode": 4
        }
      ]
    },
    {
      "name": "Plastic_Bottle_01_GEO_Plastic_Bottles_0",
      "primitives": [
        {
          "attributes": {
            "NORMAL": 15,
            "POSITION": 14,
            "TANGENT": 16,
            "TEXCOORD_0": 17,
            "TEXCOORD_1": 18,
            "TEXCOORD_2": 19
          },
          "indices": 20,
          "material": 0,
          "mode": 4
        }
      ]
    }
  ],
  "nodes": [
    {
      "children": [
        1
      ],
      "matrix": [
        1.0,
        0.0,
        0.0,
        0.0,
        0.0,
        2.220446049250313e-16,
        -1.0,
        0.0,
        0.0,
        1.0,
        2.220446049250313e-16,
        0.0,
        0.0,
        0.0,
        0.0,
        1.0
      ],
      "name": "Sketchfab_model"
    },
    {
      "children": [
        2
      ],
      "matrix": [
        1.0,
        0.0,
        0.0,
        0.0,
        0.0,
        0.0,
        1.0,
        0.0,
        0.0,
        -1.0,
        0.0,
        0.0,
        0.0,
        0.0,
        0.0,
        1.0
      ],
      "name": "2ba8187fbfa749de9b76a4f80b870ceb.fbx"
    },
    {
      "children": [
        3,
        5,
        7
      ],
      "name": "RootNode"
    },
    {
      "children": [
        4
      ],
      "matrix": [
        1.0,
        0.0,
        0.0,
        0.0,
        0.0,
        1.0,
        0.0,
        0.0,
        0.0,
        0.0,
        1.0,
        0.0,
        0.5904644131660461,
        0.0,
        0.0,
        1.0
      ],
      "name": "Plastic_Bottle_03_GEO"
    },
    {
      "mesh": 0,
      "name": "Plastic_Bottle_03_GEO_Plastic_Bottles_0"
    },
    {
      "children": [
        6
      ],
      "name": "Plastic_Bottle_02_GEO"
    },
    {
      "mesh": 1,
      "name": "Plastic_Bottle_02_GEO_Plastic_Bottles_0"
    },
    {
      "children": [
        8
      ],
      "matrix": [
        1.0,
        0.0,
        0.0,
        0.0,
        0.0,
        1.0,
        0.0,
        0.0,
        0.0,
        0.0,
        1.0,
        0.0,
        -0.36700060963630676,
        0.0,
        0.0,
        1.0
      ],
      "name": "Plastic_Bottle_01_GEO"
    },
    {
      "mesh": 2,
      "name": "Plastic_Bottle_01_GEO_Plastic_Bottles_0"
    }
  ],
  "samplers": [
    {
      "magFilter": 9729,
      "minFilter": 9987,
      "wrapS": 10497,
      "wrapT": 10497
    }
  ],
  "scene": 0,
  "scenes": [
    {
      "name": "Sketchfab_Scene",
      "nodes": [
        0
      ]
    }
  ],
  "textures": [
    {
      "sampler": 0,
      "source": 0
    },
    {
      "sampler": 0,
      "source": 1
    },
    {
      "sampler": 0,
      "source": 2
    }
  ]
}
