{
  "accessors": [
    {
      "bufferView": 2,
      "componentType": 5126,
      "count": 44207,
      "max": [
        0.23846469819545746,
        0.45424264669418335,
        0.2074790596961975
      ],
      "min": [
        -0.23846469819545746,
        0.0,
        -0.2074790596961975
      ],
      "type": "VEC3"
    },
    {
      "bufferView": 2,
      "byteOffset": 530484,
      "componentType": 5126,
      "count": 44207,
      "type": "VEC3"
    },
    {
      "bufferView": 3,
      "componentType": 5126,
      "count": 44207,
      "type": "VEC4"
    },
    {
      "bufferView": 1,
      "componentType": 5126,
      "count": 44207,
      "type": "VEC2"
    },
    {
      "bufferView": 1,
      "byteOffset": 353656,
      "componentType": 5126,
      "count": 44207,
      "type": "VEC2"
    },
    {
      "bufferView": 1,
      "byteOffset": 707312,
      "componentType": 5126,
      "count": 44207,
      "type": "VEC2"
    },
    {
      "bufferView": 1,
      "byteOffset": 1060968,
      "componentType": 5126,
      "count": 44207,
      "type": "VEC2"
    },
    {
      "bufferView": 0,
      "componentType": 5125,
      "count": 155469,
      "type": "SCALAR"
    }
  ],
  "asset": {
    "generator": "fab-model-conversion",
    "version": "2.0"
  },
  "bufferViews": [
    {
      "buffer": 0,
      "byteLength": 621876,
      "target": 34963
    },
    {
      "buffer": 0,
      "byteLength": 1414624,
      "byteOffset": 621876,
      "byteStride": 8,
      "target": 34962
    },
    {
      "buffer": 0,
      "byteLength": 1060968,
      "byteOffset": 2036500,
      "byteStride": 12,
      "target": 34962
    },
    {
      "buffer": 0,
      "byteLength": 707312,
      "byteOffset": 3097468,
      "byteStride": 16,
      "target": 34962
    }
  ],
  "buffers": [
    {
      "byteLength": 3804780,
      "uri": "scene.bin"
    }
  ],
  "images": [
    {
      "uri": "textures/CoffeeMachine_baseColor.png"
    },
    {
      "uri": "textures/CoffeeMachine_metallicRoughness.png"
    },
    {
      "uri": "textures/CoffeeMachine_normal.jpeg"
    }
  ],
  "materials": [
    {
      "alphaMode": "BLEND",
      "name": "CoffeeMachine",
      "normalTexture": {
        "index": 2,
        "scale": 0.474491852597017
      },
      "occlusionTexture": {
        "index": 1,
        "strength": 0.5352592229498323
      },
      "pbrMetallicRoughness": {
        "baseColorTexture": {
          "index": 0
        },
        "metallicRoughnessTexture": {
          "index": 1
        }
      }
    }
  ],
  "meshes": [
    {
      "name": "Object_0",
      "primitives": [
        {
          "attributes": {
            "NORMAL": 1,
            "POSITION": 0,
            "TANGENT": 2,
            "TEXCOORD_0": 3,
            "TEXCOORD_1": 4,
            "TEXCOORD_2": 5,
            "TEXCOORD_3": 6
          },
          "indices": 7,
          "material": 0,
          "mode": 4
        }
      ]
    }
  ],
  "nodes": [
    {
      "children": [
        1
      ],
      "matrix": [
        1.0,
        0.0,
        0.0,
        0.0,
        0.0,
        2.220446049250313e-16,
        -1.0,
        0.0,
        0.0,
        1.0,
        2.220446049250313e-16,
        0.0,
        0.0,
        0.0,
        0.0,
        1.0
      ],
      "name": "Sketchfab_model"
    },
    {
      "children": [
        2
      ],
      "name": "root"
    },
    {
      "children": [
        3
      ],
      "matrix": [
        1.0,
        0.0,
        0.0,
        0.0,
        0.0,
        2.220446049250313e-16,
        1.0,
        0.0,
        0.0,
        -1.0,
        2.220446049250313e-16,
        0.0,
        0.0,
        0.0,
        0.0,
        1.0
      ],
      "name": "GLTF_SceneRootNode"
    },
    {
      "children": [
        4
      ],
      "name": "CoffeeMachine_0"
    },
    {
      "mesh": 0,
      "name": "Object_4"
    }
  ],
  "samplers": [
    {
      "magFilter": 9729,
      "minFilter": 9987,
      "wrapS": 10497,
      "wrapT": 10497
    }
  ],
  "scene": 0,
  "scenes": [
    {
      "name": "Sketchfab_Scene",
      "nodes": [
        0
      ]
    }
  ],
  "textures": [
    {
      "sampler": 0,
      "source": 0
    },
    {
      "sampler": 0,
      "source": 1
    },
    {
      "sampler": 0,
      "source": 2
    }
  ]
}
